<svg xmlns="http://www.w3.org/2000/svg" xmlns:xlink="http://www.w3.org/1999/xlink" xmlns:lucid="lucid" width="3059" height="2120"><g transform="translate(3560 820)" lucid:page-tab-id="0_0"><path d="M-3612.8-1259.2H64v2582.4h-3676.8z" fill="#fff"/><path d="M-2720 205c0-2.76 2.24-5 5-5h350c2.76 0 5 2.24 5 5v230c0 2.76-2.24 5-5 5h-350c-2.76 0-5-2.24-5-5z" stroke="#000" stroke-width="2" fill="#19967d"/><path d="M-2720 238h360m-360 64h360" stroke="#000" stroke-width="2" fill="none"/><use xlink:href="#a" transform="matrix(1,0,0,1,-2712,200) translate(139.05 22.6)"/><use xlink:href="#b" transform="matrix(1,0,0,1,-2708,309.87567567567567) translate(0 43.5)"/><use xlink:href="#c" transform="matrix(1,0,0,1,-2708,309.87567567567567) translate(15.5 43.5)"/><use xlink:href="#d" transform="matrix(1,0,0,1,-2708,309.87567567567567) translate(0 65.10000000000001)"/><use xlink:href="#e" transform="matrix(1,0,0,1,-2708,309.87567567567567) translate(10.95 65.10000000000001)"/><use xlink:href="#d" transform="matrix(1,0,0,1,-2708,309.87567567567567) translate(0 86.70000000000002)"/><use xlink:href="#f" transform="matrix(1,0,0,1,-2708,309.87567567567567) translate(10.95 86.70000000000002)"/><path d="M-2260 865c0-2.76 2.24-5 5-5h350c2.76 0 5 2.24 5 5v230c0 2.76-2.24 5-5 5h-350c-2.76 0-5-2.24-5-5z" stroke="#000" stroke-width="2" fill="#ef8d22"/><path d="M-2260 898h360m-360 64h360" stroke="#000" stroke-width="2" fill="none"/><use xlink:href="#g" transform="matrix(1,0,0,1,-2252,860) translate(146 22.6)"/><use xlink:href="#b" transform="matrix(1,0,0,1,-2248,969.8756756756757) translate(0 43.5)"/><use xlink:href="#c" transform="matrix(1,0,0,1,-2248,969.8756756756757) translate(15.5 43.5)"/><use xlink:href="#d" transform="matrix(1,0,0,1,-2248,969.8756756756757) translate(0 65.10000000000001)"/><use xlink:href="#e" transform="matrix(1,0,0,1,-2248,969.8756756756757) translate(10.95 65.10000000000001)"/><use xlink:href="#d" transform="matrix(1,0,0,1,-2248,969.8756756756757) translate(0 86.70000000000002)"/><use xlink:href="#f" transform="matrix(1,0,0,1,-2248,969.8756756756757) translate(10.95 86.70000000000002)"/><path d="M-1800 725c0-2.76 2.24-5 5-5h350c2.76 0 5 2.24 5 5v230c0 2.76-2.24 5-5 5h-350c-2.76 0-5-2.24-5-5z" stroke="#000" stroke-width="2" fill="#ffc374"/><path d="M-1800 758h360m-360 64h360" stroke="#000" stroke-width="2" fill="none"/><use xlink:href="#h" transform="matrix(1,0,0,1,-1792,720) translate(124.025 22.6)"/><use xlink:href="#b" transform="matrix(1,0,0,1,-1788,829.8756756756757) translate(0 43.5)"/><use xlink:href="#c" transform="matrix(1,0,0,1,-1788,829.8756756756757) translate(15.5 43.5)"/><use xlink:href="#d" transform="matrix(1,0,0,1,-1788,829.8756756756757) translate(0 65.10000000000001)"/><use xlink:href="#e" transform="matrix(1,0,0,1,-1788,829.8756756756757) translate(10.95 65.10000000000001)"/><use xlink:href="#d" transform="matrix(1,0,0,1,-1788,829.8756756756757) translate(0 86.70000000000002)"/><use xlink:href="#f" transform="matrix(1,0,0,1,-1788,829.8756756756757) translate(10.95 86.70000000000002)"/><path d="M-2260-495c0-2.76 2.24-5 5-5h350c2.76 0 5 2.24 5 5v230c0 2.76-2.24 5-5 5h-350c-2.76 0-5-2.24-5-5z" stroke="#000" stroke-width="2" fill="#fcc438"/><path d="M-2260-462h360m-360 64h360" stroke="#000" stroke-width="2" fill="none"/><use xlink:href="#i" transform="matrix(1,0,0,1,-2252,-500) translate(146.5 22.6)"/><use xlink:href="#b" transform="matrix(1,0,0,1,-2248,-390.12432432432433) translate(0 43.5)"/><use xlink:href="#c" transform="matrix(1,0,0,1,-2248,-390.12432432432433) translate(15.5 43.5)"/><use xlink:href="#d" transform="matrix(1,0,0,1,-2248,-390.12432432432433) translate(0 65.10000000000001)"/><use xlink:href="#e" transform="matrix(1,0,0,1,-2248,-390.12432432432433) translate(10.95 65.10000000000001)"/><use xlink:href="#d" transform="matrix(1,0,0,1,-2248,-390.12432432432433) translate(0 86.70000000000002)"/><use xlink:href="#f" transform="matrix(1,0,0,1,-2248,-390.12432432432433) translate(10.95 86.70000000000002)"/><path d="M-2260 485c0-2.76 2.24-5 5-5h350c2.76 0 5 2.24 5 5v230c0 2.76-2.24 5-5 5h-350c-2.76 0-5-2.24-5-5z" stroke="#000" stroke-width="2" fill="#5abaa7"/><path d="M-2260 518h360m-360 64h360" stroke="#000" stroke-width="2" fill="none"/><use xlink:href="#j" transform="matrix(1,0,0,1,-2252,480) translate(126 22.6)"/><use xlink:href="#b" transform="matrix(1,0,0,1,-2248,589.8756756756757) translate(0 43.5)"/><use xlink:href="#c" transform="matrix(1,0,0,1,-2248,589.8756756756757) translate(15.5 43.5)"/><use xlink:href="#d" transform="matrix(1,0,0,1,-2248,589.8756756756757) translate(0 65.10000000000001)"/><use xlink:href="#e" transform="matrix(1,0,0,1,-2248,589.8756756756757) translate(10.95 65.10000000000001)"/><use xlink:href="#d" transform="matrix(1,0,0,1,-2248,589.8756756756757) translate(0 86.70000000000002)"/><use xlink:href="#f" transform="matrix(1,0,0,1,-2248,589.8756756756757) translate(10.95 86.70000000000002)"/><path d="M-881 385c0-2.76 2.24-5 5-5h350c2.76 0 5 2.24 5 5v230c0 2.76-2.24 5-5 5h-350c-2.76 0-5-2.24-5-5z" stroke="#000" stroke-width="2" fill="#99d5ca"/><path d="M-881 418h360m-360 64h360" stroke="#000" stroke-width="2" fill="none"/><use xlink:href="#k" transform="matrix(1,0,0,1,-873,380) translate(105.05 22.6)"/><use xlink:href="#b" transform="matrix(1,0,0,1,-869,489.87567567567567) translate(0 43.5)"/><use xlink:href="#c" transform="matrix(1,0,0,1,-869,489.87567567567567) translate(15.5 43.5)"/><use xlink:href="#d" transform="matrix(1,0,0,1,-869,489.87567567567567) translate(0 65.10000000000001)"/><use xlink:href="#e" transform="matrix(1,0,0,1,-869,489.87567567567567) translate(10.95 65.10000000000001)"/><use xlink:href="#d" transform="matrix(1,0,0,1,-869,489.87567567567567) translate(0 86.70000000000002)"/><use xlink:href="#f" transform="matrix(1,0,0,1,-869,489.87567567567567) translate(10.95 86.70000000000002)"/><path d="M-881 685c0-2.76 2.24-5 5-5h350c2.76 0 5 2.24 5 5v230c0 2.76-2.24 5-5 5h-350c-2.76 0-5-2.24-5-5z" stroke="#000" stroke-width="2" fill="#99d5ca"/><path d="M-881 718h360m-360 64h360" stroke="#000" stroke-width="2" fill="none"/><use xlink:href="#l" transform="matrix(1,0,0,1,-873,680) translate(120 22.6)"/><use xlink:href="#b" transform="matrix(1,0,0,1,-869,789.8756756756757) translate(0 43.5)"/><use xlink:href="#c" transform="matrix(1,0,0,1,-869,789.8756756756757) translate(15.5 43.5)"/><use xlink:href="#d" transform="matrix(1,0,0,1,-869,789.8756756756757) translate(0 65.10000000000001)"/><use xlink:href="#e" transform="matrix(1,0,0,1,-869,789.8756756756757) translate(10.95 65.10000000000001)"/><use xlink:href="#d" transform="matrix(1,0,0,1,-869,789.8756756756757) translate(0 86.70000000000002)"/><use xlink:href="#f" transform="matrix(1,0,0,1,-869,789.8756756756757) translate(10.95 86.70000000000002)"/><path d="M-881 985c0-2.76 2.24-5 5-5h350c2.76 0 5 2.24 5 5v230c0 2.76-2.24 5-5 5h-350c-2.76 0-5-2.24-5-5z" stroke="#000" stroke-width="2" fill="#99d5ca"/><path d="M-881 1018h360m-360 64h360" stroke="#000" stroke-width="2" fill="none"/><use xlink:href="#m" transform="matrix(1,0,0,1,-873,980) translate(120 22.6)"/><use xlink:href="#b" transform="matrix(1,0,0,1,-869,1089.8756756756757) translate(0 43.5)"/><use xlink:href="#c" transform="matrix(1,0,0,1,-869,1089.8756756756757) translate(15.5 43.5)"/><use xlink:href="#d" transform="matrix(1,0,0,1,-869,1089.8756756756757) translate(0 65.10000000000001)"/><use xlink:href="#e" transform="matrix(1,0,0,1,-869,1089.8756756756757) translate(10.95 65.10000000000001)"/><use xlink:href="#d" transform="matrix(1,0,0,1,-869,1089.8756756756757) translate(0 86.70000000000002)"/><use xlink:href="#f" transform="matrix(1,0,0,1,-869,1089.8756756756757) translate(10.95 86.70000000000002)"/><path d="M-881 85c0-2.76 2.24-5 5-5h350c2.76 0 5 2.24 5 5v230c0 2.76-2.24 5-5 5h-350c-2.76 0-5-2.24-5-5z" stroke="#000" stroke-width="2" fill="#99d5ca"/><path d="M-881 118h360m-360 64h360" stroke="#000" stroke-width="2" fill="none"/><use xlink:href="#n" transform="matrix(1,0,0,1,-873,80) translate(111 22.6)"/><use xlink:href="#b" transform="matrix(1,0,0,1,-869,189.87567567567567) translate(0 43.5)"/><use xlink:href="#c" transform="matrix(1,0,0,1,-869,189.87567567567567) translate(15.5 43.5)"/><use xlink:href="#d" transform="matrix(1,0,0,1,-869,189.87567567567567) translate(0 65.10000000000001)"/><use xlink:href="#e" transform="matrix(1,0,0,1,-869,189.87567567567567) translate(10.95 65.10000000000001)"/><use xlink:href="#d" transform="matrix(1,0,0,1,-869,189.87567567567567) translate(0 86.70000000000002)"/><use xlink:href="#f" transform="matrix(1,0,0,1,-869,189.87567567567567) translate(10.95 86.70000000000002)"/><path d="M-3240 205c0-2.76 2.24-5 5-5h350c2.76 0 5 2.24 5 5v230c0 2.76-2.24 5-5 5h-350c-2.76 0-5-2.24-5-5z" stroke="#000" stroke-width="2" fill="#0c7cba"/><path d="M-3240 238h360m-360 64h360" stroke="#000" stroke-width="2" fill="none"/><use xlink:href="#o" transform="matrix(1,0,0,1,-3232,200) translate(147.55 22.6)"/><use xlink:href="#b" transform="matrix(1,0,0,1,-3228,309.87567567567567) translate(0 43.5)"/><use xlink:href="#c" transform="matrix(1,0,0,1,-3228,309.87567567567567) translate(15.5 43.5)"/><use xlink:href="#d" transform="matrix(1,0,0,1,-3228,309.87567567567567) translate(0 65.10000000000001)"/><use xlink:href="#e" transform="matrix(1,0,0,1,-3228,309.87567567567567) translate(10.95 65.10000000000001)"/><use xlink:href="#d" transform="matrix(1,0,0,1,-3228,309.87567567567567) translate(0 86.70000000000002)"/><use xlink:href="#f" transform="matrix(1,0,0,1,-3228,309.87567567567567) translate(10.95 86.70000000000002)"/><path d="M-3240-555c0-2.76 2.24-5 5-5h350c2.76 0 5 2.24 5 5v230c0 2.76-2.24 5-5 5h-350c-2.76 0-5-2.24-5-5z" stroke="#000" stroke-width="2" fill="#ff8f80"/><path d="M-3240-522h360m-360 64h360" stroke="#000" stroke-width="2" fill="none"/><use xlink:href="#p" transform="matrix(1,0,0,1,-3232,-560) translate(132.6 22.6)"/><use xlink:href="#b" transform="matrix(1,0,0,1,-3228,-450.12432432432433) translate(0 43.5)"/><use xlink:href="#c" transform="matrix(1,0,0,1,-3228,-450.12432432432433) translate(15.5 43.5)"/><use xlink:href="#d" transform="matrix(1,0,0,1,-3228,-450.12432432432433) translate(0 65.10000000000001)"/><use xlink:href="#e" transform="matrix(1,0,0,1,-3228,-450.12432432432433) translate(10.95 65.10000000000001)"/><use xlink:href="#d" transform="matrix(1,0,0,1,-3228,-450.12432432432433) translate(0 86.70000000000002)"/><use xlink:href="#f" transform="matrix(1,0,0,1,-3228,-450.12432432432433) translate(10.95 86.70000000000002)"/><path d="M-2760-395c0-2.76 2.24-5 5-5h350c2.76 0 5 2.24 5 5v230c0 2.76-2.24 5-5 5h-350c-2.76 0-5-2.24-5-5z" stroke="#000" stroke-width="2" fill="#ffbbb1"/><path d="M-2760-362h360m-360 64h360" stroke="#000" stroke-width="2" fill="none"/><use xlink:href="#q" transform="matrix(1,0,0,1,-2752,-400) translate(109.15 22.6)"/><use xlink:href="#b" transform="matrix(1,0,0,1,-2748,-290.12432432432433) translate(0 43.5)"/><use xlink:href="#c" transform="matrix(1,0,0,1,-2748,-290.12432432432433) translate(15.5 43.5)"/><use xlink:href="#d" transform="matrix(1,0,0,1,-2748,-290.12432432432433) translate(0 65.10000000000001)"/><use xlink:href="#e" transform="matrix(1,0,0,1,-2748,-290.12432432432433) translate(10.95 65.10000000000001)"/><use xlink:href="#d" transform="matrix(1,0,0,1,-2748,-290.12432432432433) translate(0 86.70000000000002)"/><use xlink:href="#f" transform="matrix(1,0,0,1,-2748,-290.12432432432433) translate(10.95 86.70000000000002)"/><path d="M-2760-795c0-2.76 2.24-5 5-5h350c2.76 0 5 2.24 5 5v230c0 2.76-2.24 5-5 5h-350c-2.76 0-5-2.24-5-5z" stroke="#000" stroke-width="2" fill="#ffbbb1"/><path d="M-2760-762h360m-360 64h360" stroke="#000" stroke-width="2" fill="none"/><use xlink:href="#r" transform="matrix(1,0,0,1,-2752,-800) translate(85.65 22.6)"/><use xlink:href="#b" transform="matrix(1,0,0,1,-2748,-690.1243243243243) translate(0 43.5)"/><use xlink:href="#c" transform="matrix(1,0,0,1,-2748,-690.1243243243243) translate(15.5 43.5)"/><use xlink:href="#d" transform="matrix(1,0,0,1,-2748,-690.1243243243243) translate(0 65.10000000000001)"/><use xlink:href="#e" transform="matrix(1,0,0,1,-2748,-690.1243243243243) translate(10.95 65.10000000000001)"/><use xlink:href="#d" transform="matrix(1,0,0,1,-2748,-690.1243243243243) translate(0 86.70000000000002)"/><use xlink:href="#f" transform="matrix(1,0,0,1,-2748,-690.1243243243243) translate(10.95 86.70000000000002)"/><path d="M-2260-175c0-2.76 2.24-5 5-5h350c2.76 0 5 2.24 5 5V55c0 2.76-2.24 5-5 5h-350c-2.76 0-5-2.24-5-5z" stroke="#000" stroke-width="2" fill="#3aa6dd"/><path d="M-2260-142h360m-360 64h360" stroke="#000" stroke-width="2" fill="none"/><use xlink:href="#s" transform="matrix(1,0,0,1,-2252,-180) translate(149.025 22.6)"/><use xlink:href="#b" transform="matrix(1,0,0,1,-2248,-70.12432432432433) translate(0 43.5)"/><use xlink:href="#c" transform="matrix(1,0,0,1,-2248,-70.12432432432433) translate(15.5 43.5)"/><use xlink:href="#d" transform="matrix(1,0,0,1,-2248,-70.12432432432433) translate(0 65.10000000000001)"/><use xlink:href="#e" transform="matrix(1,0,0,1,-2248,-70.12432432432433) translate(10.95 65.10000000000001)"/><use xlink:href="#d" transform="matrix(1,0,0,1,-2248,-70.12432432432433) translate(0 86.70000000000002)"/><use xlink:href="#f" transform="matrix(1,0,0,1,-2248,-70.12432432432433) translate(10.95 86.70000000000002)"/><path d="M-1800 1045c0-2.76 2.24-5 5-5h350c2.76 0 5 2.24 5 5v230c0 2.76-2.24 5-5 5h-350c-2.76 0-5-2.24-5-5z" stroke="#000" stroke-width="2" fill="#ffc374"/><path d="M-1800 1078h360m-360 64h360" stroke="#000" stroke-width="2" fill="none"/><use xlink:href="#t" transform="matrix(1,0,0,1,-1792,1040) translate(116.55 22.6)"/><use xlink:href="#b" transform="matrix(1,0,0,1,-1788,1149.8756756756757) translate(0 43.5)"/><use xlink:href="#c" transform="matrix(1,0,0,1,-1788,1149.8756756756757) translate(15.5 43.5)"/><use xlink:href="#d" transform="matrix(1,0,0,1,-1788,1149.8756756756757) translate(0 65.10000000000001)"/><use xlink:href="#e" transform="matrix(1,0,0,1,-1788,1149.8756756756757) translate(10.95 65.10000000000001)"/><use xlink:href="#d" transform="matrix(1,0,0,1,-1788,1149.8756756756757) translate(0 86.70000000000002)"/><use xlink:href="#f" transform="matrix(1,0,0,1,-1788,1149.8756756756757) translate(10.95 86.70000000000002)"/><path d="M-2260 145c0-2.76 2.24-5 5-5h350c2.76 0 5 2.24 5 5v230c0 2.76-2.24 5-5 5h-350c-2.76 0-5-2.24-5-5z" stroke="#000" stroke-width="2" fill="#7ab648"/><path d="M-2260 178h360m-360 64h360" stroke="#000" stroke-width="2" fill="none"/><g><use xlink:href="#u" transform="matrix(1,0,0,1,-2252,140) translate(122.025 22.6)"/></g><g><use xlink:href="#b" transform="matrix(1,0,0,1,-2248,249.87567567567567) translate(0 43.5)"/><use xlink:href="#c" transform="matrix(1,0,0,1,-2248,249.87567567567567) translate(15.5 43.5)"/><use xlink:href="#d" transform="matrix(1,0,0,1,-2248,249.87567567567567) translate(0 65.10000000000001)"/><use xlink:href="#e" transform="matrix(1,0,0,1,-2248,249.87567567567567) translate(10.95 65.10000000000001)"/><use xlink:href="#d" transform="matrix(1,0,0,1,-2248,249.87567567567567) translate(0 86.70000000000002)"/><use xlink:href="#f" transform="matrix(1,0,0,1,-2248,249.87567567567567) translate(10.95 86.70000000000002)"/></g><path d="M-1750-175c0-2.76 2.24-5 5-5h350c2.76 0 5 2.24 5 5V55c0 2.76-2.24 5-5 5h-350c-2.76 0-5-2.24-5-5z" stroke="#000" stroke-width="2" fill="#99d2f2"/><path d="M-1750-142h360m-360 64h360" stroke="#000" stroke-width="2" fill="none"/><g><use xlink:href="#v" transform="matrix(1,0,0,1,-1742,-180) translate(143.575 22.6)"/></g><g><use xlink:href="#b" transform="matrix(1,0,0,1,-1738,-70.12432432432433) translate(0 43.5)"/><use xlink:href="#c" transform="matrix(1,0,0,1,-1738,-70.12432432432433) translate(15.5 43.5)"/><use xlink:href="#d" transform="matrix(1,0,0,1,-1738,-70.12432432432433) translate(0 65.10000000000001)"/><use xlink:href="#e" transform="matrix(1,0,0,1,-1738,-70.12432432432433) translate(10.95 65.10000000000001)"/><use xlink:href="#d" transform="matrix(1,0,0,1,-1738,-70.12432432432433) translate(0 86.70000000000002)"/><use xlink:href="#f" transform="matrix(1,0,0,1,-1738,-70.12432432432433) translate(10.95 86.70000000000002)"/></g><path d="M-2261 260h-44c-2.76 0-5 2.24-5 5v50c0 2.76-2.24 5-5 5h-20.04M-2261 260h3" stroke="#000" stroke-width="2" fill="none"/><path d="M-2357.04 320l21.52-12.73v25.46z" stroke="#000" stroke-width="2" fill="#fff"/><path d="M-882 1100h-503.5c-2.76 0-5-2.24-5-5V605c0-2.76-2.24-5-5-5h-479.54M-882 1100h3" stroke="#000" stroke-width="2" fill="none"/><path d="M-1897.04 600l21.52-12.73v25.46z" stroke="#000" stroke-width="2" fill="#fff"/><path d="M-882 800h-503.5c-2.76 0-5-2.24-5-5V605c0-2.76-2.24-5-5-5h-479.54M-882 800h3" stroke="#000" stroke-width="2" fill="none"/><path d="M-1897.04 600l21.52-12.73v25.46z" stroke="#000" stroke-width="2" fill="#fff"/><path d="M-882 500h-503.5c-2.76 0-5 2.24-5 5v90c0 2.76-2.24 5-5 5h-479.54M-882 500h3" stroke="#000" stroke-width="2" fill="none"/><path d="M-1897.04 600l21.52-12.73v25.46z" stroke="#000" stroke-width="2" fill="#fff"/><path d="M-882 200h-503.5c-2.76 0-5 2.24-5 5v390c0 2.76-2.24 5-5 5h-479.54M-882 200h3" stroke="#000" stroke-width="2" fill="none"/><path d="M-1897.04 600l21.52-12.73v25.46z" stroke="#000" stroke-width="2" fill="#fff"/><path d="M-1801 1160h-44c-2.76 0-5-2.24-5-5V985c0-2.76-2.24-5-5-5h-20.04M-1801 1160h3" stroke="#000" stroke-width="2" fill="none"/><path d="M-1897.04 980l21.52-12.73v25.46z" stroke="#000" stroke-width="2" fill="#fff"/><path d="M-1801 840h-44c-2.76 0-5 2.24-5 5v130c0 2.76-2.24 5-5 5h-20.04M-1801 840h3" stroke="#000" stroke-width="2" fill="none"/><path d="M-1897.04 980l21.52-12.73v25.46z" stroke="#000" stroke-width="2" fill="#fff"/><path d="M-1750-495c0-2.76 2.24-5 5-5h350c2.76 0 5 2.24 5 5v230c0 2.76-2.24 5-5 5h-350c-2.76 0-5-2.24-5-5z" stroke="#000" stroke-width="2" fill="#ffdf71"/><path d="M-1750-462h360m-360 64h360" stroke="#000" stroke-width="2" fill="none"/><g><use xlink:href="#w" transform="matrix(1,0,0,1,-1742,-500) translate(112.94999999999999 22.6)"/></g><g><use xlink:href="#b" transform="matrix(1,0,0,1,-1738,-390.12432432432433) translate(0 43.5)"/><use xlink:href="#c" transform="matrix(1,0,0,1,-1738,-390.12432432432433) translate(15.5 43.5)"/><use xlink:href="#d" transform="matrix(1,0,0,1,-1738,-390.12432432432433) translate(0 65.10000000000001)"/><use xlink:href="#e" transform="matrix(1,0,0,1,-1738,-390.12432432432433) translate(10.95 65.10000000000001)"/><use xlink:href="#d" transform="matrix(1,0,0,1,-1738,-390.12432432432433) translate(0 86.70000000000002)"/><use xlink:href="#f" transform="matrix(1,0,0,1,-1738,-390.12432432432433) translate(10.95 86.70000000000002)"/></g><path d="M-1751-380h-124.04M-1751-380h3" stroke="#000" stroke-width="2" fill="none"/><path d="M-1897.04-380l21.52-12.73v25.46z" stroke="#000" stroke-width="2" fill="#fff"/><path d="M-1751-60h-124.04M-1751-60h3" stroke="#000" stroke-width="2" fill="none"/><path d="M-1897.04-60l21.52-12.73v25.46z" stroke="#000" stroke-width="2" fill="#fff"/><path d="M-2761-680h-54c-2.76 0-5 2.24-5 5v230c0 2.76-2.24 5-5 5h-30.04M-2761-680h3" stroke="#000" stroke-width="2" fill="none"/><path d="M-2877.04-440l21.52-12.73v25.46z" stroke="#000" stroke-width="2" fill="#fff"/><path d="M-2761-280h-54c-2.76 0-5-2.24-5-5v-150c0-2.76-2.24-5-5-5h-30.04M-2761-280h3" stroke="#000" stroke-width="2" fill="none"/><path d="M-2877.04-440l21.52-12.73v25.46z" stroke="#000" stroke-width="2" fill="#fff"/><path d="M-2721 320h-134.04M-2721 320h3" stroke="#000" stroke-width="2" fill="none"/><path d="M-2877.04 320l21.52-12.73v25.46z" stroke="#000" stroke-width="2" fill="#fff"/><path d="M-3540-175c0-2.76 2.24-5 5-5h350c2.76 0 5 2.24 5 5V55c0 2.76-2.24 5-5 5h-350c-2.76 0-5-2.24-5-5z" stroke="#000" stroke-width="2" fill="#999"/><path d="M-3540-142h360m-360 64h360" stroke="#000" stroke-width="2" fill="none"/><g><use xlink:href="#x" transform="matrix(1,0,0,1,-3532,-180) translate(132 22.6)"/></g><g><use xlink:href="#b" transform="matrix(1,0,0,1,-3528,-70.12432432432433) translate(0 43.5)"/><use xlink:href="#c" transform="matrix(1,0,0,1,-3528,-70.12432432432433) translate(15.5 43.5)"/><use xlink:href="#d" transform="matrix(1,0,0,1,-3528,-70.12432432432433) translate(0 65.10000000000001)"/><use xlink:href="#e" transform="matrix(1,0,0,1,-3528,-70.12432432432433) translate(10.95 65.10000000000001)"/><use xlink:href="#d" transform="matrix(1,0,0,1,-3528,-70.12432432432433) translate(0 86.70000000000002)"/><use xlink:href="#f" transform="matrix(1,0,0,1,-3528,-70.12432432432433) translate(10.95 86.70000000000002)"/></g><path d="M-3060 199V-55c0-2.76-2.24-5-5-5h-90.04M-3060 199v3" stroke="#000" stroke-width="2" fill="none"/><path d="M-3177.04-60l21.52-12.73v25.46z" stroke="#000" stroke-width="2" fill="#fff"/><path d="M-3060-319v254c0 2.76-2.24 5-5 5h-90.04M-3060-319v-3" stroke="#000" stroke-width="2" fill="none"/><path d="M-3177.04-60l21.52-12.73v25.46z" stroke="#000" stroke-width="2" fill="#fff"/><path d="M-2261 600h-44c-2.76 0-5-2.24-5-5V325c0-2.76-2.24-5-5-5h-20.04M-2261 600h3" stroke="#000" stroke-width="2" fill="none"/><path d="M-2357.04 320l21.52-12.73v25.46z" stroke="#000" stroke-width="2" fill="#fff"/><path d="M-2261 980h-44c-2.76 0-5-2.24-5-5V325c0-2.76-2.24-5-5-5h-20.04M-2261 980h3" stroke="#000" stroke-width="2" fill="none"/><path d="M-2357.04 320l21.52-12.73v25.46z" stroke="#000" stroke-width="2" fill="#fff"/><path d="M-2261-60h-44c-2.76 0-5 2.24-5 5v370c0 2.76-2.24 5-5 5h-20.04M-2261-60h3" stroke="#000" stroke-width="2" fill="none"/><path d="M-2357.04 320l21.52-12.73v25.46z" stroke="#000" stroke-width="2" fill="#fff"/><path d="M-2261-380h-44c-2.76 0-5 2.24-5 5v690c0 2.76-2.24 5-5 5h-20.04M-2261-380h3" stroke="#000" stroke-width="2" fill="none"/><path d="M-2357.04 320l21.52-12.73v25.46z" stroke="#000" stroke-width="2" fill="#fff"/><path d="M-2240-795c0-2.76 2.24-5 5-5h1570c2.76 0 5 2.24 5 5v190c0 2.76-2.24 5-5 5h-1570c-2.76 0-5-2.24-5-5z" stroke="#000" stroke-opacity="0" stroke-width="2" fill="#fff" fill-opacity="0"/><g><use xlink:href="#y" transform="matrix(1,0,0,1,-2240,-800) translate(99.44944444444447 114)"/><use xlink:href="#z" transform="matrix(1,0,0,1,-2240,-800) translate(467.4494444444445 114)"/><use xlink:href="#A" transform="matrix(1,0,0,1,-2240,-800) translate(655.2272222222223 114)"/><use xlink:href="#B" transform="matrix(1,0,0,1,-2240,-800) translate(766.3383333333334 114)"/></g><defs><path d="M30 0v-248h187v28H63v79h144v27H63v87h162V0H30" id="C"/><path d="M24 0v-261h32V0H24" id="D"/><path d="M100-194c63 0 86 42 84 106H49c0 40 14 67 53 68 26 1 43-12 49-29l28 8c-11 28-37 45-77 45C44 4 14-33 15-96c1-61 26-98 85-98zm52 81c6-60-76-77-97-28-3 7-6 17-6 28h103" id="E"/><path d="M210-169c-67 3-38 105-44 169h-31v-121c0-29-5-50-35-48C34-165 62-65 56 0H25l-1-190h30c1 10-1 24 2 32 10-44 99-50 107 0 11-21 27-35 58-36 85-2 47 119 55 194h-31v-121c0-29-5-49-35-48" id="F"/><path d="M117-194c89-4 53 116 60 194h-32v-121c0-31-8-49-39-48C34-167 62-67 57 0H25l-1-190h30c1 10-1 24 2 32 11-22 29-35 61-36" id="G"/><path d="M59-47c-2 24 18 29 38 22v24C64 9 27 4 27-40v-127H5v-23h24l9-43h21v43h35v23H59v120" id="H"/><g id="a"><use transform="matrix(0.05,0,0,0.05,0,0)" xlink:href="#C"/><use transform="matrix(0.05,0,0,0.05,12,0)" xlink:href="#D"/><use transform="matrix(0.05,0,0,0.05,15.949999999999998,0)" xlink:href="#E"/><use transform="matrix(0.05,0,0,0.05,25.950000000000003,0)" xlink:href="#F"/><use transform="matrix(0.05,0,0,0.05,40.9,0)" xlink:href="#E"/><use transform="matrix(0.05,0,0,0.05,50.9,0)" xlink:href="#G"/><use transform="matrix(0.05,0,0,0.05,60.900000000000006,0)" xlink:href="#H"/></g><path d="M118-107v75H92v-75H18v-26h74v-75h26v75h74v26h-74" id="I"/><use transform="matrix(0.05,0,0,0.05,0,0)" xlink:href="#I" id="b"/><path d="M100-194c62-1 85 37 85 99 1 63-27 99-86 99S16-35 15-95c0-66 28-99 85-99zM99-20c44 1 53-31 53-75 0-43-8-75-51-75s-53 32-53 75 10 74 51 75" id="J"/><path d="M115-194c55 1 70 41 70 98S169 2 115 4C84 4 66-9 55-30l1 105H24l-1-265h31l2 30c10-21 28-34 59-34zm-8 174c40 0 45-34 45-75s-6-73-45-74c-42 0-51 32-51 76 0 43 10 73 51 73" id="K"/><path d="M114-163C36-179 61-72 57 0H25l-1-190h30c1 12-1 29 2 39 6-27 23-49 58-41v29" id="L"/><path d="M141-36C126-15 110 5 73 4 37 3 15-17 15-53c-1-64 63-63 125-63 3-35-9-54-41-54-24 1-41 7-42 31l-33-3c5-37 33-52 76-52 45 0 72 20 72 64v82c-1 20 7 32 28 27v20c-31 9-61-2-59-35zM48-53c0 20 12 33 32 33 41-3 63-29 60-74-43 2-92-5-92 41" id="M"/><path d="M24-231v-30h32v30H24zM24 0v-190h32V0H24" id="N"/><path d="M27 0v-27h64v-190l-56 39v-29l58-41h29v221h61V0H27" id="O"/><path d="M87 75C49 33 22-17 22-94c0-76 28-126 65-167h31c-38 41-64 92-64 168S80 34 118 75H87" id="P"/><path d="M135-143c-3-34-86-38-87 0 15 53 115 12 119 90S17 21 10-45l28-5c4 36 97 45 98 0-10-56-113-15-118-90-4-57 82-63 122-42 12 7 21 19 24 35" id="Q"/><path d="M33-261c38 41 65 92 65 168S71 34 33 75H2C39 34 66-17 66-93S39-220 2-261h31" id="R"/><path d="M33-154v-36h34v36H33zM33 0v-36h34V0H33" id="S"/><path d="M84 4C-5 8 30-112 23-190h32v120c0 31 7 50 39 49 72-2 45-101 50-169h31l1 190h-30c-1-10 1-25-2-33-11 22-28 36-60 37" id="T"/><path d="M127-220V0H93v-220H8v-28h204v28h-85" id="U"/><path d="M179-190L93 31C79 59 56 82 12 73V49c39 6 53-20 64-50L1-190h34L92-34l54-156h33" id="V"/><g id="c"><use transform="matrix(0.05,0,0,0.05,0,0)" xlink:href="#J"/><use transform="matrix(0.05,0,0,0.05,10,0)" xlink:href="#K"/><use transform="matrix(0.05,0,0,0.05,20,0)" xlink:href="#E"/><use transform="matrix(0.05,0,0,0.05,30,0)" xlink:href="#L"/><use transform="matrix(0.05,0,0,0.05,35.95,0)" xlink:href="#M"/><use transform="matrix(0.05,0,0,0.05,45.95,0)" xlink:href="#H"/><use transform="matrix(0.05,0,0,0.05,50.95,0)" xlink:href="#N"/><use transform="matrix(0.05,0,0,0.05,54.900000000000006,0)" xlink:href="#J"/><use transform="matrix(0.05,0,0,0.05,64.9,0)" xlink:href="#G"/><use transform="matrix(0.05,0,0,0.05,74.9,0)" xlink:href="#O"/><use transform="matrix(0.05,0,0,0.05,84.9,0)" xlink:href="#P"/><use transform="matrix(0.05,0,0,0.05,90.85000000000001,0)" xlink:href="#K"/><use transform="matrix(0.05,0,0,0.05,100.85000000000001,0)" xlink:href="#M"/><use transform="matrix(0.05,0,0,0.05,110.85000000000001,0)" xlink:href="#L"/><use transform="matrix(0.05,0,0,0.05,116.80000000000001,0)" xlink:href="#M"/><use transform="matrix(0.05,0,0,0.05,126.80000000000001,0)" xlink:href="#F"/><use transform="matrix(0.05,0,0,0.05,141.75,0)" xlink:href="#Q"/><use transform="matrix(0.05,0,0,0.05,150.75,0)" xlink:href="#R"/><use transform="matrix(0.05,0,0,0.05,156.7,0)" xlink:href="#S"/><use transform="matrix(0.05,0,0,0.05,161.7,0)" xlink:href="#L"/><use transform="matrix(0.05,0,0,0.05,167.64999999999998,0)" xlink:href="#E"/><use transform="matrix(0.05,0,0,0.05,177.64999999999998,0)" xlink:href="#H"/><use transform="matrix(0.05,0,0,0.05,182.64999999999998,0)" xlink:href="#T"/><use transform="matrix(0.05,0,0,0.05,192.64999999999998,0)" xlink:href="#L"/><use transform="matrix(0.05,0,0,0.05,198.59999999999997,0)" xlink:href="#G"/><use transform="matrix(0.05,0,0,0.05,208.59999999999997,0)" xlink:href="#U"/><use transform="matrix(0.05,0,0,0.05,218.54999999999995,0)" xlink:href="#V"/><use transform="matrix(0.05,0,0,0.05,227.54999999999995,0)" xlink:href="#K"/><use transform="matrix(0.05,0,0,0.05,237.54999999999995,0)" xlink:href="#E"/></g><path d="M16-82v-28h88v28H16" id="W"/><use transform="matrix(0.05,0,0,0.05,0,0)" xlink:href="#W" id="d"/><path d="M101-251c82-7 93 87 43 132L82-64C71-53 59-42 53-27h129V0H18c2-99 128-94 128-182 0-28-16-43-45-43s-46 15-49 41l-32-3c6-41 34-60 81-64" id="X"/><g id="e"><use transform="matrix(0.05,0,0,0.05,0,0)" xlink:href="#J"/><use transform="matrix(0.05,0,0,0.05,10,0)" xlink:href="#K"/><use transform="matrix(0.05,0,0,0.05,20,0)" xlink:href="#E"/><use transform="matrix(0.05,0,0,0.05,30,0)" xlink:href="#L"/><use transform="matrix(0.05,0,0,0.05,35.95,0)" xlink:href="#M"/><use transform="matrix(0.05,0,0,0.05,45.95,0)" xlink:href="#H"/><use transform="matrix(0.05,0,0,0.05,50.95,0)" xlink:href="#N"/><use transform="matrix(0.05,0,0,0.05,54.900000000000006,0)" xlink:href="#J"/><use transform="matrix(0.05,0,0,0.05,64.9,0)" xlink:href="#G"/><use transform="matrix(0.05,0,0,0.05,74.9,0)" xlink:href="#X"/><use transform="matrix(0.05,0,0,0.05,84.9,0)" xlink:href="#P"/><use transform="matrix(0.05,0,0,0.05,90.85000000000001,0)" xlink:href="#K"/><use transform="matrix(0.05,0,0,0.05,100.85000000000001,0)" xlink:href="#M"/><use transform="matrix(0.05,0,0,0.05,110.85000000000001,0)" xlink:href="#L"/><use transform="matrix(0.05,0,0,0.05,116.80000000000001,0)" xlink:href="#M"/><use transform="matrix(0.05,0,0,0.05,126.80000000000001,0)" xlink:href="#F"/><use transform="matrix(0.05,0,0,0.05,141.75,0)" xlink:href="#Q"/><use transform="matrix(0.05,0,0,0.05,150.75,0)" xlink:href="#R"/></g><path d="M126-127c33 6 58 20 58 59 0 88-139 92-164 29-3-8-5-16-6-25l32-3c6 27 21 44 54 44 32 0 52-15 52-46 0-38-36-46-79-43v-28c39 1 72-4 72-42 0-27-17-43-46-43-28 0-47 15-49 41l-32-3c6-42 35-63 81-64 48-1 79 21 79 65 0 36-21 52-52 59" id="Y"/><g id="f"><use transform="matrix(0.05,0,0,0.05,0,0)" xlink:href="#J"/><use transform="matrix(0.05,0,0,0.05,10,0)" xlink:href="#K"/><use transform="matrix(0.05,0,0,0.05,20,0)" xlink:href="#E"/><use transform="matrix(0.05,0,0,0.05,30,0)" xlink:href="#L"/><use transform="matrix(0.05,0,0,0.05,35.95,0)" xlink:href="#M"/><use transform="matrix(0.05,0,0,0.05,45.95,0)" xlink:href="#H"/><use transform="matrix(0.05,0,0,0.05,50.95,0)" xlink:href="#N"/><use transform="matrix(0.05,0,0,0.05,54.900000000000006,0)" xlink:href="#J"/><use transform="matrix(0.05,0,0,0.05,64.9,0)" xlink:href="#G"/><use transform="matrix(0.05,0,0,0.05,74.9,0)" xlink:href="#Y"/><use transform="matrix(0.05,0,0,0.05,84.9,0)" xlink:href="#P"/><use transform="matrix(0.05,0,0,0.05,90.85000000000001,0)" xlink:href="#R"/></g><path d="M160-131c35 5 61 23 61 61C221 17 115-2 30 0v-248c76 3 177-17 177 60 0 33-19 50-47 57zm-97-11c50-1 110 9 110-42 0-47-63-36-110-37v79zm0 115c55-2 124 14 124-45 0-56-70-42-124-44v89" id="Z"/><g id="g"><use transform="matrix(0.05,0,0,0.05,0,0)" xlink:href="#Z"/><use transform="matrix(0.05,0,0,0.05,12,0)" xlink:href="#T"/><use transform="matrix(0.05,0,0,0.05,22,0)" xlink:href="#H"/><use transform="matrix(0.05,0,0,0.05,27,0)" xlink:href="#H"/><use transform="matrix(0.05,0,0,0.05,32,0)" xlink:href="#J"/><use transform="matrix(0.05,0,0,0.05,42,0)" xlink:href="#G"/></g><path d="M30 0v-248h33v221h125V0H30" id="aa"/><path d="M115-194c53 0 69 39 70 98 0 66-23 100-70 100C84 3 66-7 56-30L54 0H23l1-261h32v101c10-23 28-34 59-34zm-8 174c40 0 45-34 45-75 0-40-5-75-45-74-42 0-51 32-51 76 0 43 10 73 51 73" id="ab"/><g id="h"><use transform="matrix(0.05,0,0,0.05,0,0)" xlink:href="#aa"/><use transform="matrix(0.05,0,0,0.05,10,0)" xlink:href="#M"/><use transform="matrix(0.05,0,0,0.05,20,0)" xlink:href="#ab"/><use transform="matrix(0.05,0,0,0.05,30,0)" xlink:href="#E"/><use transform="matrix(0.05,0,0,0.05,40,0)" xlink:href="#D"/><use transform="matrix(0.05,0,0,0.05,43.95,0)" xlink:href="#Z"/><use transform="matrix(0.05,0,0,0.05,55.95,0)" xlink:href="#T"/><use transform="matrix(0.05,0,0,0.05,65.95,0)" xlink:href="#H"/><use transform="matrix(0.05,0,0,0.05,70.95,0)" xlink:href="#H"/><use transform="matrix(0.05,0,0,0.05,75.95,0)" xlink:href="#J"/><use transform="matrix(0.05,0,0,0.05,85.95,0)" xlink:href="#G"/></g><path d="M185-189c-5-48-123-54-124 2 14 75 158 14 163 119 3 78-121 87-175 55-17-10-28-26-33-46l33-7c5 56 141 63 141-1 0-78-155-14-162-118-5-82 145-84 179-34 5 7 8 16 11 25" id="ac"/><path d="M96-169c-40 0-48 33-48 73s9 75 48 75c24 0 41-14 43-38l32 2c-6 37-31 61-74 61-59 0-76-41-82-99-10-93 101-131 147-64 4 7 5 14 7 22l-32 3c-4-21-16-35-41-35" id="ad"/><g id="i"><use transform="matrix(0.05,0,0,0.05,0,0)" xlink:href="#ac"/><use transform="matrix(0.05,0,0,0.05,12,0)" xlink:href="#ad"/><use transform="matrix(0.05,0,0,0.05,21,0)" xlink:href="#E"/><use transform="matrix(0.05,0,0,0.05,31,0)" xlink:href="#G"/><use transform="matrix(0.05,0,0,0.05,41,0)" xlink:href="#E"/></g><path d="M33 0v-248h34V0H33" id="ae"/><g id="j"><use transform="matrix(0.05,0,0,0.05,0,0)" xlink:href="#ae"/><use transform="matrix(0.05,0,0,0.05,5,0)" xlink:href="#G"/><use transform="matrix(0.05,0,0,0.05,15,0)" xlink:href="#K"/><use transform="matrix(0.05,0,0,0.05,25,0)" xlink:href="#T"/><use transform="matrix(0.05,0,0,0.05,35,0)" xlink:href="#H"/><use transform="matrix(0.05,0,0,0.05,40,0)" xlink:href="#Z"/><use transform="matrix(0.05,0,0,0.05,52,0)" xlink:href="#T"/><use transform="matrix(0.05,0,0,0.05,62,0)" xlink:href="#H"/><use transform="matrix(0.05,0,0,0.05,67,0)" xlink:href="#H"/><use transform="matrix(0.05,0,0,0.05,72,0)" xlink:href="#J"/><use transform="matrix(0.05,0,0,0.05,82,0)" xlink:href="#G"/></g><path d="M233-177c-1 41-23 64-60 70L243 0h-38l-65-103H63V0H30v-248c88 3 205-21 203 71zM63-129c60-2 137 13 137-47 0-61-80-42-137-45v92" id="af"/><path d="M177-190C167-65 218 103 67 71c-23-6-38-20-44-43l32-5c15 47 100 32 89-28v-30C133-14 115 1 83 1 29 1 15-40 15-95c0-56 16-97 71-98 29-1 48 16 59 35 1-10 0-23 2-32h30zM94-22c36 0 50-32 50-73 0-42-14-75-50-75-39 0-46 34-46 75s6 73 46 73" id="ag"/><path d="M106-169C34-169 62-67 57 0H25v-261h32l-1 103c12-21 28-36 61-36 89 0 53 116 60 194h-32v-121c2-32-8-49-39-48" id="ah"/><g id="k"><use transform="matrix(0.05,0,0,0.05,0,0)" xlink:href="#af"/><use transform="matrix(0.05,0,0,0.05,12.950000000000001,0)" xlink:href="#N"/><use transform="matrix(0.05,0,0,0.05,16.900000000000002,0)" xlink:href="#ag"/><use transform="matrix(0.05,0,0,0.05,26.900000000000002,0)" xlink:href="#ah"/><use transform="matrix(0.05,0,0,0.05,36.900000000000006,0)" xlink:href="#H"/><use transform="matrix(0.05,0,0,0.05,41.900000000000006,0)" xlink:href="#ae"/><use transform="matrix(0.05,0,0,0.05,46.900000000000006,0)" xlink:href="#G"/><use transform="matrix(0.05,0,0,0.05,56.900000000000006,0)" xlink:href="#K"/><use transform="matrix(0.05,0,0,0.05,66.9,0)" xlink:href="#T"/><use transform="matrix(0.05,0,0,0.05,76.9,0)" xlink:href="#H"/><use transform="matrix(0.05,0,0,0.05,81.9,0)" xlink:href="#Z"/><use transform="matrix(0.05,0,0,0.05,93.9,0)" xlink:href="#T"/><use transform="matrix(0.05,0,0,0.05,103.9,0)" xlink:href="#H"/><use transform="matrix(0.05,0,0,0.05,108.9,0)" xlink:href="#H"/><use transform="matrix(0.05,0,0,0.05,113.9,0)" xlink:href="#J"/><use transform="matrix(0.05,0,0,0.05,123.9,0)" xlink:href="#G"/></g><path d="M205 0l-28-72H64L36 0H1l101-248h38L239 0h-34zm-38-99l-47-123c-12 45-31 82-46 123h93" id="ai"/><g id="l"><use transform="matrix(0.05,0,0,0.05,0,0)" xlink:href="#ai"/><use transform="matrix(0.05,0,0,0.05,12,0)" xlink:href="#ae"/><use transform="matrix(0.05,0,0,0.05,17,0)" xlink:href="#G"/><use transform="matrix(0.05,0,0,0.05,27,0)" xlink:href="#K"/><use transform="matrix(0.05,0,0,0.05,37,0)" xlink:href="#T"/><use transform="matrix(0.05,0,0,0.05,47,0)" xlink:href="#H"/><use transform="matrix(0.05,0,0,0.05,52,0)" xlink:href="#Z"/><use transform="matrix(0.05,0,0,0.05,64,0)" xlink:href="#T"/><use transform="matrix(0.05,0,0,0.05,74,0)" xlink:href="#H"/><use transform="matrix(0.05,0,0,0.05,79,0)" xlink:href="#H"/><use transform="matrix(0.05,0,0,0.05,84,0)" xlink:href="#J"/><use transform="matrix(0.05,0,0,0.05,94,0)" xlink:href="#G"/></g><g id="m"><use transform="matrix(0.05,0,0,0.05,0,0)" xlink:href="#Z"/><use transform="matrix(0.05,0,0,0.05,12,0)" xlink:href="#ae"/><use transform="matrix(0.05,0,0,0.05,17,0)" xlink:href="#G"/><use transform="matrix(0.05,0,0,0.05,27,0)" xlink:href="#K"/><use transform="matrix(0.05,0,0,0.05,37,0)" xlink:href="#T"/><use transform="matrix(0.05,0,0,0.05,47,0)" xlink:href="#H"/><use transform="matrix(0.05,0,0,0.05,52,0)" xlink:href="#Z"/><use transform="matrix(0.05,0,0,0.05,64,0)" xlink:href="#T"/><use transform="matrix(0.05,0,0,0.05,74,0)" xlink:href="#H"/><use transform="matrix(0.05,0,0,0.05,79,0)" xlink:href="#H"/><use transform="matrix(0.05,0,0,0.05,84,0)" xlink:href="#J"/><use transform="matrix(0.05,0,0,0.05,94,0)" xlink:href="#G"/></g><path d="M101-234c-31-9-42 10-38 44h38v23H63V0H32v-167H5v-23h27c-7-52 17-82 69-68v24" id="aj"/><g id="n"><use transform="matrix(0.05,0,0,0.05,0,0)" xlink:href="#aa"/><use transform="matrix(0.05,0,0,0.05,10,0)" xlink:href="#E"/><use transform="matrix(0.05,0,0,0.05,20,0)" xlink:href="#aj"/><use transform="matrix(0.05,0,0,0.05,25,0)" xlink:href="#H"/><use transform="matrix(0.05,0,0,0.05,30,0)" xlink:href="#ae"/><use transform="matrix(0.05,0,0,0.05,35,0)" xlink:href="#G"/><use transform="matrix(0.05,0,0,0.05,45,0)" xlink:href="#K"/><use transform="matrix(0.05,0,0,0.05,55,0)" xlink:href="#T"/><use transform="matrix(0.05,0,0,0.05,65,0)" xlink:href="#H"/><use transform="matrix(0.05,0,0,0.05,70,0)" xlink:href="#Z"/><use transform="matrix(0.05,0,0,0.05,82,0)" xlink:href="#T"/><use transform="matrix(0.05,0,0,0.05,92,0)" xlink:href="#H"/><use transform="matrix(0.05,0,0,0.05,97,0)" xlink:href="#H"/><use transform="matrix(0.05,0,0,0.05,102,0)" xlink:href="#J"/><use transform="matrix(0.05,0,0,0.05,112,0)" xlink:href="#G"/></g><path d="M240 0l2-218c-23 76-54 145-80 218h-23L58-218 59 0H30v-248h44l77 211c21-75 51-140 76-211h43V0h-30" id="ak"/><path d="M85-194c31 0 48 13 60 33l-1-100h32l1 261h-30c-2-10 0-23-3-31C134-8 116 4 85 4 32 4 16-35 15-94c0-66 23-100 70-100zm9 24c-40 0-46 34-46 75 0 40 6 74 45 74 42 0 51-32 51-76 0-42-9-74-50-73" id="al"/><g id="o"><use transform="matrix(0.05,0,0,0.05,0,0)" xlink:href="#ak"/><use transform="matrix(0.05,0,0,0.05,14.950000000000001,0)" xlink:href="#J"/><use transform="matrix(0.05,0,0,0.05,24.950000000000003,0)" xlink:href="#al"/><use transform="matrix(0.05,0,0,0.05,34.95,0)" xlink:href="#E"/><use transform="matrix(0.05,0,0,0.05,44.95,0)" xlink:href="#D"/></g><path d="M212-179c-10-28-35-45-73-45-59 0-87 40-87 99 0 60 29 101 89 101 43 0 62-24 78-52l27 14C228-24 195 4 139 4 59 4 22-46 18-125c-6-104 99-153 187-111 19 9 31 26 39 46" id="am"/><g id="p"><use transform="matrix(0.05,0,0,0.05,0,0)" xlink:href="#am"/><use transform="matrix(0.05,0,0,0.05,12.950000000000001,0)" xlink:href="#J"/><use transform="matrix(0.05,0,0,0.05,22.950000000000003,0)" xlink:href="#D"/><use transform="matrix(0.05,0,0,0.05,26.900000000000002,0)" xlink:href="#D"/><use transform="matrix(0.05,0,0,0.05,30.85,0)" xlink:href="#E"/><use transform="matrix(0.05,0,0,0.05,40.85,0)" xlink:href="#ad"/><use transform="matrix(0.05,0,0,0.05,49.85,0)" xlink:href="#H"/><use transform="matrix(0.05,0,0,0.05,54.85,0)" xlink:href="#N"/><use transform="matrix(0.05,0,0,0.05,58.800000000000004,0)" xlink:href="#J"/><use transform="matrix(0.05,0,0,0.05,68.80000000000001,0)" xlink:href="#G"/></g><g id="q"><use transform="matrix(0.05,0,0,0.05,0,0)" xlink:href="#ac"/><use transform="matrix(0.05,0,0,0.05,12,0)" xlink:href="#K"/><use transform="matrix(0.05,0,0,0.05,22,0)" xlink:href="#L"/><use transform="matrix(0.05,0,0,0.05,27.950000000000003,0)" xlink:href="#N"/><use transform="matrix(0.05,0,0,0.05,31.899999999999995,0)" xlink:href="#H"/><use transform="matrix(0.05,0,0,0.05,36.9,0)" xlink:href="#E"/><use transform="matrix(0.05,0,0,0.05,46.9,0)" xlink:href="#am"/><use transform="matrix(0.05,0,0,0.05,59.85,0)" xlink:href="#J"/><use transform="matrix(0.05,0,0,0.05,69.85,0)" xlink:href="#D"/><use transform="matrix(0.05,0,0,0.05,73.8,0)" xlink:href="#D"/><use transform="matrix(0.05,0,0,0.05,77.75,0)" xlink:href="#E"/><use transform="matrix(0.05,0,0,0.05,87.75,0)" xlink:href="#ad"/><use transform="matrix(0.05,0,0,0.05,96.75,0)" xlink:href="#H"/><use transform="matrix(0.05,0,0,0.05,101.75,0)" xlink:href="#N"/><use transform="matrix(0.05,0,0,0.05,105.7,0)" xlink:href="#J"/><use transform="matrix(0.05,0,0,0.05,115.7,0)" xlink:href="#G"/></g><g id="r"><use transform="matrix(0.05,0,0,0.05,0,0)" xlink:href="#ac"/><use transform="matrix(0.05,0,0,0.05,12,0)" xlink:href="#K"/><use transform="matrix(0.05,0,0,0.05,22,0)" xlink:href="#L"/><use transform="matrix(0.05,0,0,0.05,27.950000000000003,0)" xlink:href="#N"/><use transform="matrix(0.05,0,0,0.05,31.899999999999995,0)" xlink:href="#H"/><use transform="matrix(0.05,0,0,0.05,36.9,0)" xlink:href="#E"/><use transform="matrix(0.05,0,0,0.05,46.9,0)" xlink:href="#ac"/><use transform="matrix(0.05,0,0,0.05,58.900000000000006,0)" xlink:href="#ah"/><use transform="matrix(0.05,0,0,0.05,68.9,0)" xlink:href="#E"/><use transform="matrix(0.05,0,0,0.05,78.9,0)" xlink:href="#E"/><use transform="matrix(0.05,0,0,0.05,88.9,0)" xlink:href="#H"/><use transform="matrix(0.05,0,0,0.05,93.9,0)" xlink:href="#am"/><use transform="matrix(0.05,0,0,0.05,106.85000000000001,0)" xlink:href="#J"/><use transform="matrix(0.05,0,0,0.05,116.85000000000001,0)" xlink:href="#D"/><use transform="matrix(0.05,0,0,0.05,120.80000000000001,0)" xlink:href="#D"/><use transform="matrix(0.05,0,0,0.05,124.75,0)" xlink:href="#E"/><use transform="matrix(0.05,0,0,0.05,134.75,0)" xlink:href="#ad"/><use transform="matrix(0.05,0,0,0.05,143.75,0)" xlink:href="#H"/><use transform="matrix(0.05,0,0,0.05,148.75,0)" xlink:href="#N"/><use transform="matrix(0.05,0,0,0.05,152.7,0)" xlink:href="#J"/><use transform="matrix(0.05,0,0,0.05,162.7,0)" xlink:href="#G"/></g><path d="M30-248c87 1 191-15 191 75 0 78-77 80-158 76V0H30v-248zm33 125c57 0 124 11 124-50 0-59-68-47-124-48v98" id="an"/><g id="s"><use transform="matrix(0.05,0,0,0.05,0,0)" xlink:href="#an"/><use transform="matrix(0.05,0,0,0.05,12,0)" xlink:href="#M"/><use transform="matrix(0.05,0,0,0.05,22,0)" xlink:href="#G"/><use transform="matrix(0.05,0,0,0.05,32,0)" xlink:href="#E"/><use transform="matrix(0.05,0,0,0.05,42,0)" xlink:href="#D"/></g><path d="M140-251c81 0 123 46 123 126C263-46 219 4 140 4 59 4 17-45 17-125s42-126 123-126zm0 227c63 0 89-41 89-101s-29-99-89-99c-61 0-89 39-89 99S79-25 140-24" id="ao"/><g id="t"><use transform="matrix(0.05,0,0,0.05,0,0)" xlink:href="#an"/><use transform="matrix(0.05,0,0,0.05,12,0)" xlink:href="#T"/><use transform="matrix(0.05,0,0,0.05,22,0)" xlink:href="#D"/><use transform="matrix(0.05,0,0,0.05,25.950000000000003,0)" xlink:href="#D"/><use transform="matrix(0.05,0,0,0.05,29.899999999999995,0)" xlink:href="#ao"/><use transform="matrix(0.05,0,0,0.05,43.9,0)" xlink:href="#T"/><use transform="matrix(0.05,0,0,0.05,53.900000000000006,0)" xlink:href="#H"/><use transform="matrix(0.05,0,0,0.05,58.900000000000006,0)" xlink:href="#Z"/><use transform="matrix(0.05,0,0,0.05,70.9,0)" xlink:href="#T"/><use transform="matrix(0.05,0,0,0.05,80.9,0)" xlink:href="#H"/><use transform="matrix(0.05,0,0,0.05,85.9,0)" xlink:href="#H"/><use transform="matrix(0.05,0,0,0.05,90.9,0)" xlink:href="#J"/><use transform="matrix(0.05,0,0,0.05,100.9,0)" xlink:href="#G"/></g><path d="M108 0H70L1-190h34L89-25l56-165h34" id="ap"/><path d="M143 4C61 4 22-44 18-125c-5-107 100-154 193-111 17 8 29 25 37 43l-32 9c-13-25-37-40-76-40-61 0-88 39-88 99 0 61 29 100 91 101 35 0 62-11 79-27v-45h-74v-28h105v86C228-13 192 4 143 4" id="aq"/><g id="u"><use transform="matrix(0.05,0,0,0.05,0,0)" xlink:href="#ac"/><use transform="matrix(0.05,0,0,0.05,12,0)" xlink:href="#M"/><use transform="matrix(0.05,0,0,0.05,22,0)" xlink:href="#ap"/><use transform="matrix(0.05,0,0,0.05,31,0)" xlink:href="#E"/><use transform="matrix(0.05,0,0,0.05,41,0)" xlink:href="#al"/><use transform="matrix(0.05,0,0,0.05,51,0)" xlink:href="#aq"/><use transform="matrix(0.05,0,0,0.05,65,0)" xlink:href="#M"/><use transform="matrix(0.05,0,0,0.05,75,0)" xlink:href="#F"/><use transform="matrix(0.05,0,0,0.05,89.95,0)" xlink:href="#E"/></g><g id="v"><use transform="matrix(0.05,0,0,0.05,0,0)" xlink:href="#am"/><use transform="matrix(0.05,0,0,0.05,12.950000000000001,0)" xlink:href="#L"/><use transform="matrix(0.05,0,0,0.05,18.900000000000002,0)" xlink:href="#E"/><use transform="matrix(0.05,0,0,0.05,28.900000000000002,0)" xlink:href="#al"/><use transform="matrix(0.05,0,0,0.05,38.900000000000006,0)" xlink:href="#N"/><use transform="matrix(0.05,0,0,0.05,42.85000000000001,0)" xlink:href="#H"/><use transform="matrix(0.05,0,0,0.05,47.85000000000001,0)" xlink:href="#Q"/></g><g id="w"><use transform="matrix(0.05,0,0,0.05,0,0)" xlink:href="#U"/><use transform="matrix(0.05,0,0,0.05,10.3,0)" xlink:href="#N"/><use transform="matrix(0.05,0,0,0.05,14.25,0)" xlink:href="#H"/><use transform="matrix(0.05,0,0,0.05,19.25,0)" xlink:href="#D"/><use transform="matrix(0.05,0,0,0.05,23.2,0)" xlink:href="#E"/><use transform="matrix(0.05,0,0,0.05,33.2,0)" xlink:href="#ac"/><use transform="matrix(0.05,0,0,0.05,45.2,0)" xlink:href="#ad"/><use transform="matrix(0.05,0,0,0.05,54.2,0)" xlink:href="#L"/><use transform="matrix(0.05,0,0,0.05,60.150000000000006,0)" xlink:href="#E"/><use transform="matrix(0.05,0,0,0.05,70.15,0)" xlink:href="#E"/><use transform="matrix(0.05,0,0,0.05,80.15,0)" xlink:href="#G"/><use transform="matrix(0.05,0,0,0.05,90.15,0)" xlink:href="#aq"/><use transform="matrix(0.05,0,0,0.05,104.15,0)" xlink:href="#T"/><use transform="matrix(0.05,0,0,0.05,114.15,0)" xlink:href="#N"/></g><path d="M143 0L79-87 56-68V0H24v-261h32v163l83-92h37l-77 82L181 0h-38" id="ar"/><g id="x"><use transform="matrix(0.05,0,0,0.05,0,0)" xlink:href="#Z"/><use transform="matrix(0.05,0,0,0.05,12,0)" xlink:href="#M"/><use transform="matrix(0.05,0,0,0.05,22,0)" xlink:href="#ad"/><use transform="matrix(0.05,0,0,0.05,31,0)" xlink:href="#ar"/><use transform="matrix(0.05,0,0,0.05,40,0)" xlink:href="#ab"/><use transform="matrix(0.05,0,0,0.05,50,0)" xlink:href="#J"/><use transform="matrix(0.05,0,0,0.05,60,0)" xlink:href="#G"/><use transform="matrix(0.05,0,0,0.05,70,0)" xlink:href="#E"/></g><path d="M30-248c118-7 216 8 213 122C240-48 200 0 122 0H30v-248zM63-27c89 8 146-16 146-99s-60-101-146-95v194" id="as"/><g id="y"><use transform="matrix(0.2222222222222222,0,0,0.2222222222222222,0,0)" xlink:href="#as"/><use transform="matrix(0.2222222222222222,0,0,0.2222222222222222,57.55555555555555,0)" xlink:href="#N"/><use transform="matrix(0.2222222222222222,0,0,0.2222222222222222,75.1111111111111,0)" xlink:href="#M"/><use transform="matrix(0.2222222222222222,0,0,0.2222222222222222,119.55555555555554,0)" xlink:href="#ag"/><use transform="matrix(0.2222222222222222,0,0,0.2222222222222222,164,0)" xlink:href="#L"/><use transform="matrix(0.2222222222222222,0,0,0.2222222222222222,190.44444444444446,0)" xlink:href="#M"/><use transform="matrix(0.2222222222222222,0,0,0.2222222222222222,234.8888888888889,0)" xlink:href="#F"/><use transform="matrix(0.2222222222222222,0,0,0.2222222222222222,301.33333333333337,0)" xlink:href="#M"/></g><path d="M232-93c-1 65-40 97-104 97C67 4 28-28 28-90v-158h33c8 89-33 224 67 224 102 0 64-133 71-224h33v155" id="at"/><g id="z"><use transform="matrix(0.2222222222222222,0,0,0.2222222222222222,0,0)" xlink:href="#at"/><use transform="matrix(0.2222222222222222,0,0,0.2222222222222222,57.55555555555555,0)" xlink:href="#ak"/><use transform="matrix(0.2222222222222222,0,0,0.2222222222222222,124,0)" xlink:href="#aa"/></g><g id="A"><use transform="matrix(0.2222222222222222,0,0,0.2222222222222222,0,0)" xlink:href="#al"/><use transform="matrix(0.2222222222222222,0,0,0.2222222222222222,44.44444444444444,0)" xlink:href="#E"/></g><path d="M182-130c37 4 62 22 62 59C244 23 116-4 24 0v-248c84 5 203-23 205 63 0 31-19 50-47 55zM76-148c40-3 101 13 101-30 0-44-60-28-101-31v61zm0 110c48-3 116 14 116-37 0-48-69-32-116-35v72" id="au"/><path d="M133-34C117-15 103 5 69 4 32 3 11-16 11-54c-1-60 55-63 116-61 1-26-3-47-28-47-18 1-26 9-28 27l-52-2c7-38 36-58 82-57s74 22 75 68l1 82c-1 14 12 18 25 15v27c-30 8-71 5-69-32zm-48 3c29 0 43-24 42-57-32 0-66-3-65 30 0 17 8 27 23 27" id="av"/><path d="M190-63c-7 42-38 67-86 67-59 0-84-38-90-98-12-110 154-137 174-36l-49 2c-2-19-15-32-35-32-30 0-35 28-38 64-6 74 65 87 74 30" id="aw"/><path d="M147 0L96-86 75-71V0H25v-261h50v150l67-79h53l-66 74L201 0h-54" id="ax"/><path d="M135-194c52 0 70 43 70 98 0 56-19 99-73 100-30 1-46-15-58-35L72 0H24l1-261h50v104c11-23 29-37 60-37zM114-30c31 0 40-27 40-66 0-37-7-63-39-63s-41 28-41 65c0 36 8 64 40 64" id="ay"/><path d="M110-194c64 0 96 36 96 99 0 64-35 99-97 99-61 0-95-36-95-99 0-62 34-99 96-99zm-1 164c35 0 45-28 45-65 0-40-10-65-43-65-34 0-45 26-45 65 0 36 10 65 43 65" id="az"/><path d="M135-194c87-1 58 113 63 194h-50c-7-57 23-157-34-157-59 0-34 97-39 157H25l-1-190h47c2 12-1 28 3 38 12-26 28-41 61-42" id="aA"/><path d="M185-48c-13 30-37 53-82 52C43 2 14-33 14-96s30-98 90-98c62 0 83 45 84 108H66c0 31 8 55 39 56 18 0 30-7 34-22zm-45-69c5-46-57-63-70-21-2 6-4 13-4 21h74" id="aB"/><path d="M24 0v-54h51V0H24" id="aC"/><path d="M24 0v-248h195v40H76v63h132v40H76v65h150V0H24" id="aD"/><path d="M25 0v-261h50V0H25" id="aE"/><path d="M220-157c-53 9-28 100-34 157h-49v-107c1-27-5-49-29-50C55-147 81-57 75 0H25l-1-190h47c2 12-1 28 3 38 10-53 101-56 108 0 13-22 24-43 59-42 82 1 51 116 57 194h-49v-107c-1-25-5-48-29-50" id="aF"/><path d="M115-3C79 11 28 4 28-45v-112H4v-33h27l15-45h31v45h36v33H77v99c-1 23 16 31 38 25v30" id="aG"/><g id="B"><use transform="matrix(0.2222222222222222,0,0,0.2222222222222222,0,0)" xlink:href="#au"/><use transform="matrix(0.2222222222222222,0,0,0.2222222222222222,57.55555555555555,0)" xlink:href="#av"/><use transform="matrix(0.2222222222222222,0,0,0.2222222222222222,102,0)" xlink:href="#aw"/><use transform="matrix(0.2222222222222222,0,0,0.2222222222222222,146.44444444444446,0)" xlink:href="#ax"/><use transform="matrix(0.2222222222222222,0,0,0.2222222222222222,190.8888888888889,0)" xlink:href="#ay"/><use transform="matrix(0.2222222222222222,0,0,0.2222222222222222,239.5555555555556,0)" xlink:href="#az"/><use transform="matrix(0.2222222222222222,0,0,0.2222222222222222,288.22222222222223,0)" xlink:href="#aA"/><use transform="matrix(0.2222222222222222,0,0,0.2222222222222222,336.8888888888889,0)" xlink:href="#aB"/><use transform="matrix(0.2222222222222222,0,0,0.2222222222222222,381.33333333333337,0)" xlink:href="#aC"/><use transform="matrix(0.2222222222222222,0,0,0.2222222222222222,403.5555555555556,0)" xlink:href="#aD"/><use transform="matrix(0.2222222222222222,0,0,0.2222222222222222,456.88888888888897,0)" xlink:href="#aE"/><use transform="matrix(0.2222222222222222,0,0,0.2222222222222222,479.1111111111112,0)" xlink:href="#aB"/><use transform="matrix(0.2222222222222222,0,0,0.2222222222222222,523.5555555555555,0)" xlink:href="#aF"/><use transform="matrix(0.2222222222222222,0,0,0.2222222222222222,594.6666666666666,0)" xlink:href="#aB"/><use transform="matrix(0.2222222222222222,0,0,0.2222222222222222,639.1111111111111,0)" xlink:href="#aA"/><use transform="matrix(0.2222222222222222,0,0,0.2222222222222222,687.7777777777777,0)" xlink:href="#aG"/></g></defs></g></svg>