<svg xmlns="http://www.w3.org/2000/svg" xmlns:xlink="http://www.w3.org/1999/xlink" xmlns:lucid="lucid" width="2500" height="1587"><g transform="translate(-340 148)" lucid:page-tab-id="0_0"><path d="M0-1259.2h3676.8v3841.6H0z" fill="#fff"/><path d="M1460 85c0-2.76 2.24-5 5-5h350c2.76 0 5 2.24 5 5v230c0 2.76-2.24 5-5 5h-350c-2.76 0-5-2.24-5-5z" stroke="#000" stroke-width="2" fill="#fcc438"/><path d="M1460 118h360m-360 101h360" stroke="#000" stroke-width="2" fill="none"/><use xlink:href="#a" transform="matrix(1,0,0,1,1468,80) translate(147.55 22.6)"/><use xlink:href="#b" transform="matrix(1,0,0,1,1472,125.6) translate(0 25)"/><use xlink:href="#c" transform="matrix(1,0,0,1,1472,125.6) translate(15.5 25)"/><use xlink:href="#d" transform="matrix(1,0,0,1,1472,125.6) translate(134.4 25)"/><use xlink:href="#e" transform="matrix(1,0,0,1,1472,125.6) translate(149.9 25)"/><use xlink:href="#b" transform="matrix(1,0,0,1,1472,125.6) translate(0 46.6)"/><use xlink:href="#f" transform="matrix(1,0,0,1,1472,125.6) translate(15.5 46.6)"/><use xlink:href="#g" transform="matrix(1,0,0,1,1472,125.6) translate(0 68.2)"/><use xlink:href="#h" transform="matrix(1,0,0,1,1472,125.6) translate(10.95 68.2)"/><use xlink:href="#b" transform="matrix(1,0,0,1,1472,226.8) translate(0 25)"/><use xlink:href="#i" transform="matrix(1,0,0,1,1472,226.8) translate(15.5 25)"/><use xlink:href="#g" transform="matrix(1,0,0,1,1472,226.8) translate(0 46.6)"/><use xlink:href="#j" transform="matrix(1,0,0,1,1472,226.8) translate(10.95 46.6)"/><use xlink:href="#g" transform="matrix(1,0,0,1,1472,226.8) translate(0 68.2)"/><use xlink:href="#k" transform="matrix(1,0,0,1,1472,226.8) translate(10.95 68.2)"/><path d="M1240 445c0-2.76 2.24-5 5-5h350c2.76 0 5 2.24 5 5v230c0 2.76-2.24 5-5 5h-350c-2.76 0-5-2.24-5-5z" stroke="#000" stroke-width="2" fill="#ef8d22"/><path d="M1240 478h360m-360 64h360" stroke="#000" stroke-width="2" fill="none"/><use xlink:href="#l" transform="matrix(1,0,0,1,1248,440) translate(148.55 22.6)"/><use xlink:href="#b" transform="matrix(1,0,0,1,1252,549.8756756756757) translate(0 43.5)"/><use xlink:href="#i" transform="matrix(1,0,0,1,1252,549.8756756756757) translate(15.5 43.5)"/><use xlink:href="#g" transform="matrix(1,0,0,1,1252,549.8756756756757) translate(0 65.10000000000001)"/><use xlink:href="#j" transform="matrix(1,0,0,1,1252,549.8756756756757) translate(10.95 65.10000000000001)"/><use xlink:href="#g" transform="matrix(1,0,0,1,1252,549.8756756756757) translate(0 86.70000000000002)"/><use xlink:href="#k" transform="matrix(1,0,0,1,1252,549.8756756756757) translate(10.95 86.70000000000002)"/><path d="M1960-115c0-2.76 2.24-5 5-5h350c2.76 0 5 2.24 5 5v230c0 2.76-2.24 5-5 5h-350c-2.76 0-5-2.24-5-5z" stroke="#000" stroke-width="2" fill="#999"/><path d="M1960-82h360M1960 19h360" stroke="#000" stroke-width="2" fill="none"/><use xlink:href="#m" transform="matrix(1,0,0,1,1968,-120) translate(131 22.6)"/><use xlink:href="#b" transform="matrix(1,0,0,1,1972,-74.4) translate(0 25)"/><use xlink:href="#c" transform="matrix(1,0,0,1,1972,-74.4) translate(15.5 25)"/><use xlink:href="#d" transform="matrix(1,0,0,1,1972,-74.4) translate(134.4 25)"/><use xlink:href="#e" transform="matrix(1,0,0,1,1972,-74.4) translate(149.9 25)"/><use xlink:href="#b" transform="matrix(1,0,0,1,1972,-74.4) translate(0 46.6)"/><use xlink:href="#f" transform="matrix(1,0,0,1,1972,-74.4) translate(15.5 46.6)"/><use xlink:href="#g" transform="matrix(1,0,0,1,1972,-74.4) translate(0 68.2)"/><use xlink:href="#h" transform="matrix(1,0,0,1,1972,-74.4) translate(10.95 68.2)"/><use xlink:href="#b" transform="matrix(1,0,0,1,1972,26.799999999999997) translate(0 25)"/><use xlink:href="#i" transform="matrix(1,0,0,1,1972,26.799999999999997) translate(15.5 25)"/><use xlink:href="#g" transform="matrix(1,0,0,1,1972,26.799999999999997) translate(0 46.6)"/><use xlink:href="#j" transform="matrix(1,0,0,1,1972,26.799999999999997) translate(10.95 46.6)"/><use xlink:href="#g" transform="matrix(1,0,0,1,1972,26.799999999999997) translate(0 68.2)"/><use xlink:href="#k" transform="matrix(1,0,0,1,1972,26.799999999999997) translate(10.95 68.2)"/><path d="M1680 445c0-2.76 2.24-5 5-5h350c2.76 0 5 2.24 5 5v230c0 2.76-2.24 5-5 5h-350c-2.76 0-5-2.24-5-5z" stroke="#000" stroke-width="2" fill="#ef8d22"/><path d="M1680 478h360m-360 64h360" stroke="#000" stroke-width="2" fill="none"/><use xlink:href="#n" transform="matrix(1,0,0,1,1688,440) translate(144.025 22.6)"/><use xlink:href="#b" transform="matrix(1,0,0,1,1692,549.8756756756757) translate(0 43.5)"/><use xlink:href="#i" transform="matrix(1,0,0,1,1692,549.8756756756757) translate(15.5 43.5)"/><use xlink:href="#g" transform="matrix(1,0,0,1,1692,549.8756756756757) translate(0 65.10000000000001)"/><use xlink:href="#j" transform="matrix(1,0,0,1,1692,549.8756756756757) translate(10.95 65.10000000000001)"/><use xlink:href="#g" transform="matrix(1,0,0,1,1692,549.8756756756757) translate(0 86.70000000000002)"/><use xlink:href="#k" transform="matrix(1,0,0,1,1692,549.8756756756757) translate(10.95 86.70000000000002)"/><path d="M800 445c0-2.76 2.24-5 5-5h350c2.76 0 5 2.24 5 5v230c0 2.76-2.24 5-5 5H805c-2.76 0-5-2.24-5-5z" stroke="#000" stroke-width="2" fill="#ef8d22"/><path d="M800 478h360m-360 64h360" stroke="#000" stroke-width="2" fill="none"/><use xlink:href="#o" transform="matrix(1,0,0,1,808,440) translate(148.75 22.6)"/><use xlink:href="#b" transform="matrix(1,0,0,1,812,549.8756756756757) translate(0 43.5)"/><use xlink:href="#i" transform="matrix(1,0,0,1,812,549.8756756756757) translate(15.5 43.5)"/><use xlink:href="#g" transform="matrix(1,0,0,1,812,549.8756756756757) translate(0 65.10000000000001)"/><use xlink:href="#j" transform="matrix(1,0,0,1,812,549.8756756756757) translate(10.95 65.10000000000001)"/><use xlink:href="#g" transform="matrix(1,0,0,1,812,549.8756756756757) translate(0 86.70000000000002)"/><use xlink:href="#k" transform="matrix(1,0,0,1,812,549.8756756756757) translate(10.95 86.70000000000002)"/><path d="M1020 765c0-2.76 2.24-5 5-5h350c2.76 0 5 2.24 5 5v230c0 2.76-2.24 5-5 5h-350c-2.76 0-5-2.24-5-5z" stroke="#000" stroke-width="2" fill="#ffc374"/><path d="M1020 798h360m-360 64h360" stroke="#000" stroke-width="2" fill="none"/><use xlink:href="#p" transform="matrix(1,0,0,1,1028,760) translate(125.05 22.6)"/><use xlink:href="#b" transform="matrix(1,0,0,1,1032,869.8756756756757) translate(0 43.5)"/><use xlink:href="#i" transform="matrix(1,0,0,1,1032,869.8756756756757) translate(15.5 43.5)"/><use xlink:href="#g" transform="matrix(1,0,0,1,1032,869.8756756756757) translate(0 65.10000000000001)"/><use xlink:href="#j" transform="matrix(1,0,0,1,1032,869.8756756756757) translate(10.95 65.10000000000001)"/><use xlink:href="#g" transform="matrix(1,0,0,1,1032,869.8756756756757) translate(0 86.70000000000002)"/><use xlink:href="#k" transform="matrix(1,0,0,1,1032,869.8756756756757) translate(10.95 86.70000000000002)"/><path d="M360 1184c0-2.76 2.24-5 5-5h350c2.76 0 5 2.24 5 5v230c0 2.76-2.24 5-5 5H365c-2.76 0-5-2.24-5-5z" stroke="#000" stroke-width="2" fill="#ffdba9"/><path d="M360 1217h360m-360 64h360" stroke="#000" stroke-width="2" fill="none"/><use xlink:href="#q" transform="matrix(1,0,0,1,368,1179) translate(148.55 22.6)"/><use xlink:href="#b" transform="matrix(1,0,0,1,372,1288.8756756756757) translate(0 43.5)"/><use xlink:href="#i" transform="matrix(1,0,0,1,372,1288.8756756756757) translate(15.5 43.5)"/><use xlink:href="#g" transform="matrix(1,0,0,1,372,1288.8756756756757) translate(0 65.10000000000001)"/><use xlink:href="#j" transform="matrix(1,0,0,1,372,1288.8756756756757) translate(10.95 65.10000000000001)"/><use xlink:href="#g" transform="matrix(1,0,0,1,372,1288.8756756756757) translate(0 86.70000000000002)"/><use xlink:href="#k" transform="matrix(1,0,0,1,372,1288.8756756756757) translate(10.95 86.70000000000002)"/><path d="M800 1184c0-2.76 2.24-5 5-5h350c2.76 0 5 2.24 5 5v230c0 2.76-2.24 5-5 5H805c-2.76 0-5-2.24-5-5z" stroke="#000" stroke-width="2" fill="#ffdba9"/><path d="M800 1217h360m-360 64h360" stroke="#000" stroke-width="2" fill="none"/><use xlink:href="#r" transform="matrix(1,0,0,1,808,1179) translate(142.575 22.6)"/><use xlink:href="#b" transform="matrix(1,0,0,1,812,1288.8756756756757) translate(0 43.5)"/><use xlink:href="#i" transform="matrix(1,0,0,1,812,1288.8756756756757) translate(15.5 43.5)"/><use xlink:href="#g" transform="matrix(1,0,0,1,812,1288.8756756756757) translate(0 65.10000000000001)"/><use xlink:href="#j" transform="matrix(1,0,0,1,812,1288.8756756756757) translate(10.95 65.10000000000001)"/><use xlink:href="#g" transform="matrix(1,0,0,1,812,1288.8756756756757) translate(0 86.70000000000002)"/><use xlink:href="#k" transform="matrix(1,0,0,1,812,1288.8756756756757) translate(10.95 86.70000000000002)"/><path d="M2120 445c0-2.76 2.24-5 5-5h350c2.76 0 5 2.24 5 5v230c0 2.76-2.24 5-5 5h-350c-2.76 0-5-2.24-5-5z" stroke="#000" stroke-width="2" fill="#ef8d22"/><path d="M2120 478h360m-360 64h360" stroke="#000" stroke-width="2" fill="none"/><use xlink:href="#s" transform="matrix(1,0,0,1,2128,440) translate(152 22.6)"/><use xlink:href="#b" transform="matrix(1,0,0,1,2132,549.8756756756757) translate(0 43.5)"/><use xlink:href="#i" transform="matrix(1,0,0,1,2132,549.8756756756757) translate(15.5 43.5)"/><use xlink:href="#g" transform="matrix(1,0,0,1,2132,549.8756756756757) translate(0 65.10000000000001)"/><use xlink:href="#j" transform="matrix(1,0,0,1,2132,549.8756756756757) translate(10.95 65.10000000000001)"/><use xlink:href="#g" transform="matrix(1,0,0,1,2132,549.8756756756757) translate(0 86.70000000000002)"/><use xlink:href="#k" transform="matrix(1,0,0,1,2132,549.8756756756757) translate(10.95 86.70000000000002)"/><path d="M1240 1184c0-2.76 2.24-5 5-5h350c2.76 0 5 2.24 5 5v230c0 2.76-2.24 5-5 5h-350c-2.76 0-5-2.24-5-5z" stroke="#000" stroke-width="2" fill="#ffdba9"/><path d="M1240 1217h360m-360 64h360" stroke="#000" stroke-width="2" fill="none"/><use xlink:href="#t" transform="matrix(1,0,0,1,1248,1179) translate(122.55 22.6)"/><g><use xlink:href="#b" transform="matrix(1,0,0,1,1252,1288.8756756756757) translate(0 43.5)"/><use xlink:href="#i" transform="matrix(1,0,0,1,1252,1288.8756756756757) translate(15.5 43.5)"/><use xlink:href="#g" transform="matrix(1,0,0,1,1252,1288.8756756756757) translate(0 65.10000000000001)"/><use xlink:href="#j" transform="matrix(1,0,0,1,1252,1288.8756756756757) translate(10.95 65.10000000000001)"/><use xlink:href="#g" transform="matrix(1,0,0,1,1252,1288.8756756756757) translate(0 86.70000000000002)"/><use xlink:href="#k" transform="matrix(1,0,0,1,1252,1288.8756756756757) translate(10.95 86.70000000000002)"/></g><path d="M1420 439v-54c0-2.76 2.24-5 5-5h210c2.76 0 5-2.24 5-5v-30.04M1420 439v3" stroke="#000" stroke-width="2" fill="none"/><path d="M1640 322.96l12.73 21.52h-25.46z" stroke="#000" stroke-width="2" fill="#fff"/><path d="M1860 439v-54c0-2.76-2.24-5-5-5h-210c-2.76 0-5-2.24-5-5v-30.04M1860 439v3" stroke="#000" stroke-width="2" fill="none"/><path d="M1640 322.96l12.73 21.52h-25.46z" stroke="#000" stroke-width="2" fill="#fff"/><path d="M980 439v-54c0-2.76 2.24-5 5-5h650c2.76 0 5-2.24 5-5v-30.04M980 439v3" stroke="#000" stroke-width="2" fill="none"/><path d="M1640 322.96l12.73 21.52h-25.46z" stroke="#000" stroke-width="2" fill="#fff"/><path d="M540 1178v-89c0-2.76 2.24-5 5-5h1090c2.76 0 5-2.24 5-5V344.96M540 1178v3" stroke="#000" stroke-width="2" fill="none"/><path d="M1640 322.96l12.73 21.52h-25.46z" stroke="#000" stroke-width="2" fill="#fff"/><path d="M1420 1178v-88c0-2.76 2.24-5 5-5h210c2.76 0 5-2.24 5-5V344.96M1420 1178v3" stroke="#000" stroke-width="2" fill="none"/><path d="M1640 322.96l12.73 21.52h-25.46z" stroke="#000" stroke-width="2" fill="#fff"/><path d="M980 1178v-89c0-2.76 2.24-5 5-5h650c2.76 0 5-2.24 5-5V344.96M980 1178v3" stroke="#000" stroke-width="2" fill="none"/><path d="M1640 322.96l12.73 21.52h-25.46z" stroke="#000" stroke-width="2" fill="#fff"/><path d="M2300 439v-54c0-2.76-2.24-5-5-5h-650c-2.76 0-5-2.24-5-5v-30.04M2300 439v3" stroke="#000" stroke-width="2" fill="none"/><path d="M1640 322.96l12.73 21.52h-25.46z" stroke="#000" stroke-width="2" fill="#fff"/><path d="M1900 765c0-2.76 2.24-5 5-5h350c2.76 0 5 2.24 5 5v230c0 2.76-2.24 5-5 5h-350c-2.76 0-5-2.24-5-5z" stroke="#000" stroke-width="2" fill="#ffc374"/><path d="M1900 798h360m-360 64h360" stroke="#000" stroke-width="2" fill="none"/><g><use xlink:href="#u" transform="matrix(1,0,0,1,1908,760) translate(140.075 22.6)"/></g><g><use xlink:href="#b" transform="matrix(1,0,0,1,1912,869.8756756756757) translate(0 43.5)"/><use xlink:href="#i" transform="matrix(1,0,0,1,1912,869.8756756756757) translate(15.5 43.5)"/><use xlink:href="#g" transform="matrix(1,0,0,1,1912,869.8756756756757) translate(0 65.10000000000001)"/><use xlink:href="#j" transform="matrix(1,0,0,1,1912,869.8756756756757) translate(10.95 65.10000000000001)"/><use xlink:href="#g" transform="matrix(1,0,0,1,1912,869.8756756756757) translate(0 86.70000000000002)"/><use xlink:href="#k" transform="matrix(1,0,0,1,1912,869.8756756756757) translate(10.95 86.70000000000002)"/></g><path d="M1680 1184c0-2.76 2.24-5 5-5h350c2.76 0 5 2.24 5 5v230c0 2.76-2.24 5-5 5h-350c-2.76 0-5-2.24-5-5z" stroke="#000" stroke-width="2" fill="#ffdba9"/><path d="M1680 1217h360m-360 64h360" stroke="#000" stroke-width="2" fill="none"/><g><use xlink:href="#v" transform="matrix(1,0,0,1,1688,1179) translate(135.525 22.6)"/></g><g><use xlink:href="#b" transform="matrix(1,0,0,1,1692,1288.8756756756757) translate(0 43.5)"/><use xlink:href="#i" transform="matrix(1,0,0,1,1692,1288.8756756756757) translate(15.5 43.5)"/><use xlink:href="#g" transform="matrix(1,0,0,1,1692,1288.8756756756757) translate(0 65.10000000000001)"/><use xlink:href="#j" transform="matrix(1,0,0,1,1692,1288.8756756756757) translate(10.95 65.10000000000001)"/><use xlink:href="#g" transform="matrix(1,0,0,1,1692,1288.8756756756757) translate(0 86.70000000000002)"/><use xlink:href="#k" transform="matrix(1,0,0,1,1692,1288.8756756756757) translate(10.95 86.70000000000002)"/></g><path d="M1860 1178v-89c0-2.76-2.24-5-5-5h-210c-2.76 0-5-2.24-5-5V344.96M1860 1178v3" stroke="#000" stroke-width="2" fill="none"/><path d="M1640 322.96l12.73 21.52h-25.46z" stroke="#000" stroke-width="2" fill="#fff"/><path d="M2460 765c0-2.76 2.24-5 5-5h350c2.76 0 5 2.24 5 5v230c0 2.76-2.24 5-5 5h-350c-2.76 0-5-2.24-5-5z" stroke="#000" stroke-width="2" fill="#ffc374"/><path d="M2460 798h360m-360 64h360" stroke="#000" stroke-width="2" fill="none"/><g><use xlink:href="#w" transform="matrix(1,0,0,1,2468,760) translate(149.55 22.6)"/></g><g><use xlink:href="#b" transform="matrix(1,0,0,1,2472,869.8756756756757) translate(0 43.5)"/><use xlink:href="#i" transform="matrix(1,0,0,1,2472,869.8756756756757) translate(15.5 43.5)"/><use xlink:href="#g" transform="matrix(1,0,0,1,2472,869.8756756756757) translate(0 65.10000000000001)"/><use xlink:href="#j" transform="matrix(1,0,0,1,2472,869.8756756756757) translate(10.95 65.10000000000001)"/><use xlink:href="#g" transform="matrix(1,0,0,1,2472,869.8756756756757) translate(0 86.70000000000002)"/><use xlink:href="#k" transform="matrix(1,0,0,1,2472,869.8756756756757) translate(10.95 86.70000000000002)"/></g><path d="M2120 1184c0-2.76 2.24-5 5-5h350c2.76 0 5 2.24 5 5v230c0 2.76-2.24 5-5 5h-350c-2.76 0-5-2.24-5-5z" stroke="#000" stroke-width="2" fill="#ffdba9"/><path d="M2120 1217h360m-360 64h360" stroke="#000" stroke-width="2" fill="none"/><g><use xlink:href="#x" transform="matrix(1,0,0,1,2128,1179) translate(139.05 22.6)"/></g><g><use xlink:href="#b" transform="matrix(1,0,0,1,2132,1288.8756756756757) translate(0 43.5)"/><use xlink:href="#i" transform="matrix(1,0,0,1,2132,1288.8756756756757) translate(15.5 43.5)"/><use xlink:href="#g" transform="matrix(1,0,0,1,2132,1288.8756756756757) translate(0 65.10000000000001)"/><use xlink:href="#j" transform="matrix(1,0,0,1,2132,1288.8756756756757) translate(10.95 65.10000000000001)"/><use xlink:href="#g" transform="matrix(1,0,0,1,2132,1288.8756756756757) translate(0 86.70000000000002)"/><use xlink:href="#k" transform="matrix(1,0,0,1,2132,1288.8756756756757) translate(10.95 86.70000000000002)"/></g><path d="M2300 1178v-88c0-2.76-2.24-5-5-5h-430c0-2.76-2.24-5-5-5s-5 2.24-5 5h-210c-2.76 0-5-2.24-5-5V344.96M2300 1178v3" stroke="#000" stroke-width="2" fill="none"/><path d="M1640 322.96l12.73 21.52h-25.46z" stroke="#000" stroke-width="2" fill="#fff"/><path d="M2640 759V385c0-2.76-2.24-5-5-5h-990c-2.76 0-5-2.24-5-5v-30.04M2640 759v3" stroke="#000" stroke-width="2" fill="none"/><path d="M1640 322.96l12.73 21.52h-25.46z" stroke="#000" stroke-width="2" fill="#fff"/><path d="M1200 759V385c0-2.76 2.24-5 5-5h429.83c2.76 0 5-2.24 5-5v-30.04M1200 759v3" stroke="#000" stroke-width="2" fill="none"/><path d="M1639.83 322.96l12.72 21.52h-25.45z" stroke="#000" stroke-width="2" fill="#fff"/><path d="M2080 759V385c0-2.76-2.24-5-5-5h-426.95c-2.76 0-5-2.24-5-5v-30.04M2080 759v3" stroke="#000" stroke-width="2" fill="none"/><path d="M1643.05 322.96l12.73 21.52h-25.45z" stroke="#000" stroke-width="2" fill="#fff"/><path d="M1821 200h314c2.76 0 5-2.24 5-5v-50.04M1821 200h-3" stroke="#000" stroke-width="2" fill="none"/><path d="M2140 122.96l12.73 21.52h-25.46z" stroke="#000" stroke-width="2" fill="#fff"/><path d="M540-123c0-2.76 2.24-5 5-5h1170c2.76 0 5 2.24 5 5V27c0 2.76-2.24 5-5 5H545c-2.76 0-5-2.24-5-5z" stroke="#000" stroke-opacity="0" stroke-width="2" fill="#fff" fill-opacity="0"/><g><use xlink:href="#y" transform="matrix(1,0,0,1,540,-128) translate(43.560555555555545 94)"/><use xlink:href="#z" transform="matrix(1,0,0,1,540,-128) translate(411.5605555555556 94)"/><use xlink:href="#A" transform="matrix(1,0,0,1,540,-128) translate(599.3383333333334 94)"/><use xlink:href="#B" transform="matrix(1,0,0,1,540,-128) translate(710.4494444444445 94)"/><use xlink:href="#C" transform="matrix(1,0,0,1,540,-128) translate(834.6716666666666 94)"/></g><defs><path d="M240 0l2-218c-23 76-54 145-80 218h-23L58-218 59 0H30v-248h44l77 211c21-75 51-140 76-211h43V0h-30" id="D"/><path d="M100-194c62-1 85 37 85 99 1 63-27 99-86 99S16-35 15-95c0-66 28-99 85-99zM99-20c44 1 53-31 53-75 0-43-8-75-51-75s-53 32-53 75 10 74 51 75" id="E"/><path d="M85-194c31 0 48 13 60 33l-1-100h32l1 261h-30c-2-10 0-23-3-31C134-8 116 4 85 4 32 4 16-35 15-94c0-66 23-100 70-100zm9 24c-40 0-46 34-46 75 0 40 6 74 45 74 42 0 51-32 51-76 0-42-9-74-50-73" id="F"/><path d="M100-194c63 0 86 42 84 106H49c0 40 14 67 53 68 26 1 43-12 49-29l28 8c-11 28-37 45-77 45C44 4 14-33 15-96c1-61 26-98 85-98zm52 81c6-60-76-77-97-28-3 7-6 17-6 28h103" id="G"/><path d="M24 0v-261h32V0H24" id="H"/><g id="a"><use transform="matrix(0.05,0,0,0.05,0,0)" xlink:href="#D"/><use transform="matrix(0.05,0,0,0.05,14.950000000000001,0)" xlink:href="#E"/><use transform="matrix(0.05,0,0,0.05,24.950000000000003,0)" xlink:href="#F"/><use transform="matrix(0.05,0,0,0.05,34.95,0)" xlink:href="#G"/><use transform="matrix(0.05,0,0,0.05,44.95,0)" xlink:href="#H"/></g><path d="M118-107v75H92v-75H18v-26h74v-75h26v75h74v26h-74" id="I"/><use transform="matrix(0.05,0,0,0.05,0,0)" xlink:href="#I" id="b"/><path d="M141-36C126-15 110 5 73 4 37 3 15-17 15-53c-1-64 63-63 125-63 3-35-9-54-41-54-24 1-41 7-42 31l-33-3c5-37 33-52 76-52 45 0 72 20 72 64v82c-1 20 7 32 28 27v20c-31 9-61-2-59-35zM48-53c0 20 12 33 32 33 41-3 63-29 60-74-43 2-92-5-92 41" id="J"/><path d="M59-47c-2 24 18 29 38 22v24C64 9 27 4 27-40v-127H5v-23h24l9-43h21v43h35v23H59v120" id="K"/><path d="M114-163C36-179 61-72 57 0H25l-1-190h30c1 12-1 29 2 39 6-27 23-49 58-41v29" id="L"/><path d="M24-231v-30h32v30H24zM24 0v-190h32V0H24" id="M"/><path d="M115-194c53 0 69 39 70 98 0 66-23 100-70 100C84 3 66-7 56-30L54 0H23l1-261h32v101c10-23 28-34 59-34zm-8 174c40 0 45-34 45-75 0-40-5-75-45-74-42 0-51 32-51 76 0 43 10 73 51 73" id="N"/><path d="M84 4C-5 8 30-112 23-190h32v120c0 31 7 50 39 49 72-2 45-101 50-169h31l1 190h-30c-1-10 1-25-2-33-11 22-28 36-60 37" id="O"/><path d="M27 0v-27h64v-190l-56 39v-29l58-41h29v221h61V0H27" id="P"/><path d="M33-154v-36h34v36H33zM33 0v-36h34V0H33" id="Q"/><path d="M179-190L93 31C79 59 56 82 12 73V49c39 6 53-20 64-50L1-190h34L92-34l54-156h33" id="R"/><path d="M115-194c55 1 70 41 70 98S169 2 115 4C84 4 66-9 55-30l1 105H24l-1-265h31l2 30c10-21 28-34 59-34zm-8 174c40 0 45-34 45-75s-6-73-45-74c-42 0-51 32-51 76 0 43 10 73 51 73" id="S"/><g id="c"><use transform="matrix(0.05,0,0,0.05,0,0)" xlink:href="#J"/><use transform="matrix(0.05,0,0,0.05,10,0)" xlink:href="#K"/><use transform="matrix(0.05,0,0,0.05,15,0)" xlink:href="#K"/><use transform="matrix(0.05,0,0,0.05,20,0)" xlink:href="#L"/><use transform="matrix(0.05,0,0,0.05,25.950000000000003,0)" xlink:href="#M"/><use transform="matrix(0.05,0,0,0.05,29.899999999999995,0)" xlink:href="#N"/><use transform="matrix(0.05,0,0,0.05,39.9,0)" xlink:href="#O"/><use transform="matrix(0.05,0,0,0.05,49.9,0)" xlink:href="#K"/><use transform="matrix(0.05,0,0,0.05,54.900000000000006,0)" xlink:href="#G"/><use transform="matrix(0.05,0,0,0.05,64.9,0)" xlink:href="#P"/><use transform="matrix(0.05,0,0,0.05,74.9,0)" xlink:href="#Q"/><use transform="matrix(0.05,0,0,0.05,79.9,0)" xlink:href="#K"/><use transform="matrix(0.05,0,0,0.05,84.9,0)" xlink:href="#R"/><use transform="matrix(0.05,0,0,0.05,93.9,0)" xlink:href="#S"/><use transform="matrix(0.05,0,0,0.05,103.9,0)" xlink:href="#G"/></g><path d="M18-150v-26h174v26H18zm0 90v-26h174v26H18" id="T"/><use transform="matrix(0.05,0,0,0.05,0,0)" xlink:href="#T" id="d"/><path d="M101-234c-31-9-42 10-38 44h38v23H63V0H32v-167H5v-23h27c-7-52 17-82 69-68v24" id="U"/><path d="M137 0h-34L2-248h35l83 218 83-218h36" id="V"/><g id="e"><use transform="matrix(0.05,0,0,0.05,0,0)" xlink:href="#F"/><use transform="matrix(0.05,0,0,0.05,10,0)" xlink:href="#G"/><use transform="matrix(0.05,0,0,0.05,20,0)" xlink:href="#U"/><use transform="matrix(0.05,0,0,0.05,25,0)" xlink:href="#J"/><use transform="matrix(0.05,0,0,0.05,35,0)" xlink:href="#O"/><use transform="matrix(0.05,0,0,0.05,45,0)" xlink:href="#H"/><use transform="matrix(0.05,0,0,0.05,48.95,0)" xlink:href="#K"/><use transform="matrix(0.05,0,0,0.05,53.95,0)" xlink:href="#V"/><use transform="matrix(0.05,0,0,0.05,64.6,0)" xlink:href="#J"/><use transform="matrix(0.05,0,0,0.05,74.6,0)" xlink:href="#H"/><use transform="matrix(0.05,0,0,0.05,78.55,0)" xlink:href="#O"/><use transform="matrix(0.05,0,0,0.05,88.55,0)" xlink:href="#G"/></g><path d="M101-251c82-7 93 87 43 132L82-64C71-53 59-42 53-27h129V0H18c2-99 128-94 128-182 0-28-16-43-45-43s-46 15-49 41l-32-3c6-41 34-60 81-64" id="W"/><g id="f"><use transform="matrix(0.05,0,0,0.05,0,0)" xlink:href="#J"/><use transform="matrix(0.05,0,0,0.05,10,0)" xlink:href="#K"/><use transform="matrix(0.05,0,0,0.05,15,0)" xlink:href="#K"/><use transform="matrix(0.05,0,0,0.05,20,0)" xlink:href="#L"/><use transform="matrix(0.05,0,0,0.05,25.950000000000003,0)" xlink:href="#M"/><use transform="matrix(0.05,0,0,0.05,29.899999999999995,0)" xlink:href="#N"/><use transform="matrix(0.05,0,0,0.05,39.9,0)" xlink:href="#O"/><use transform="matrix(0.05,0,0,0.05,49.9,0)" xlink:href="#K"/><use transform="matrix(0.05,0,0,0.05,54.900000000000006,0)" xlink:href="#G"/><use transform="matrix(0.05,0,0,0.05,64.9,0)" xlink:href="#W"/><use transform="matrix(0.05,0,0,0.05,74.9,0)" xlink:href="#Q"/><use transform="matrix(0.05,0,0,0.05,79.9,0)" xlink:href="#K"/><use transform="matrix(0.05,0,0,0.05,84.9,0)" xlink:href="#R"/><use transform="matrix(0.05,0,0,0.05,93.9,0)" xlink:href="#S"/><use transform="matrix(0.05,0,0,0.05,103.9,0)" xlink:href="#G"/></g><path d="M16-82v-28h88v28H16" id="X"/><use transform="matrix(0.05,0,0,0.05,0,0)" xlink:href="#X" id="g"/><path d="M126-127c33 6 58 20 58 59 0 88-139 92-164 29-3-8-5-16-6-25l32-3c6 27 21 44 54 44 32 0 52-15 52-46 0-38-36-46-79-43v-28c39 1 72-4 72-42 0-27-17-43-46-43-28 0-47 15-49 41l-32-3c6-42 35-63 81-64 48-1 79 21 79 65 0 36-21 52-52 59" id="Y"/><g id="h"><use transform="matrix(0.05,0,0,0.05,0,0)" xlink:href="#J"/><use transform="matrix(0.05,0,0,0.05,10,0)" xlink:href="#K"/><use transform="matrix(0.05,0,0,0.05,15,0)" xlink:href="#K"/><use transform="matrix(0.05,0,0,0.05,20,0)" xlink:href="#L"/><use transform="matrix(0.05,0,0,0.05,25.950000000000003,0)" xlink:href="#M"/><use transform="matrix(0.05,0,0,0.05,29.899999999999995,0)" xlink:href="#N"/><use transform="matrix(0.05,0,0,0.05,39.9,0)" xlink:href="#O"/><use transform="matrix(0.05,0,0,0.05,49.9,0)" xlink:href="#K"/><use transform="matrix(0.05,0,0,0.05,54.900000000000006,0)" xlink:href="#G"/><use transform="matrix(0.05,0,0,0.05,64.9,0)" xlink:href="#Y"/><use transform="matrix(0.05,0,0,0.05,74.9,0)" xlink:href="#Q"/><use transform="matrix(0.05,0,0,0.05,79.9,0)" xlink:href="#K"/><use transform="matrix(0.05,0,0,0.05,84.9,0)" xlink:href="#R"/><use transform="matrix(0.05,0,0,0.05,93.9,0)" xlink:href="#S"/><use transform="matrix(0.05,0,0,0.05,103.9,0)" xlink:href="#G"/></g><path d="M117-194c89-4 53 116 60 194h-32v-121c0-31-8-49-39-48C34-167 62-67 57 0H25l-1-190h30c1 10-1 24 2 32 11-22 29-35 61-36" id="Z"/><path d="M87 75C49 33 22-17 22-94c0-76 28-126 65-167h31c-38 41-64 92-64 168S80 34 118 75H87" id="aa"/><path d="M210-169c-67 3-38 105-44 169h-31v-121c0-29-5-50-35-48C34-165 62-65 56 0H25l-1-190h30c1 10-1 24 2 32 10-44 99-50 107 0 11-21 27-35 58-36 85-2 47 119 55 194h-31v-121c0-29-5-49-35-48" id="ab"/><path d="M135-143c-3-34-86-38-87 0 15 53 115 12 119 90S17 21 10-45l28-5c4 36 97 45 98 0-10-56-113-15-118-90-4-57 82-63 122-42 12 7 21 19 24 35" id="ac"/><path d="M33-261c38 41 65 92 65 168S71 34 33 75H2C39 34 66-17 66-93S39-220 2-261h31" id="ad"/><path d="M127-220V0H93v-220H8v-28h204v28h-85" id="ae"/><g id="i"><use transform="matrix(0.05,0,0,0.05,0,0)" xlink:href="#E"/><use transform="matrix(0.05,0,0,0.05,10,0)" xlink:href="#S"/><use transform="matrix(0.05,0,0,0.05,20,0)" xlink:href="#G"/><use transform="matrix(0.05,0,0,0.05,30,0)" xlink:href="#L"/><use transform="matrix(0.05,0,0,0.05,35.95,0)" xlink:href="#J"/><use transform="matrix(0.05,0,0,0.05,45.95,0)" xlink:href="#K"/><use transform="matrix(0.05,0,0,0.05,50.95,0)" xlink:href="#M"/><use transform="matrix(0.05,0,0,0.05,54.900000000000006,0)" xlink:href="#E"/><use transform="matrix(0.05,0,0,0.05,64.9,0)" xlink:href="#Z"/><use transform="matrix(0.05,0,0,0.05,74.9,0)" xlink:href="#P"/><use transform="matrix(0.05,0,0,0.05,84.9,0)" xlink:href="#aa"/><use transform="matrix(0.05,0,0,0.05,90.85000000000001,0)" xlink:href="#S"/><use transform="matrix(0.05,0,0,0.05,100.85000000000001,0)" xlink:href="#J"/><use transform="matrix(0.05,0,0,0.05,110.85000000000001,0)" xlink:href="#L"/><use transform="matrix(0.05,0,0,0.05,116.80000000000001,0)" xlink:href="#J"/><use transform="matrix(0.05,0,0,0.05,126.80000000000001,0)" xlink:href="#ab"/><use transform="matrix(0.05,0,0,0.05,141.75,0)" xlink:href="#ac"/><use transform="matrix(0.05,0,0,0.05,150.75,0)" xlink:href="#ad"/><use transform="matrix(0.05,0,0,0.05,156.7,0)" xlink:href="#Q"/><use transform="matrix(0.05,0,0,0.05,161.7,0)" xlink:href="#L"/><use transform="matrix(0.05,0,0,0.05,167.64999999999998,0)" xlink:href="#G"/><use transform="matrix(0.05,0,0,0.05,177.64999999999998,0)" xlink:href="#K"/><use transform="matrix(0.05,0,0,0.05,182.64999999999998,0)" xlink:href="#O"/><use transform="matrix(0.05,0,0,0.05,192.64999999999998,0)" xlink:href="#L"/><use transform="matrix(0.05,0,0,0.05,198.59999999999997,0)" xlink:href="#Z"/><use transform="matrix(0.05,0,0,0.05,208.59999999999997,0)" xlink:href="#ae"/><use transform="matrix(0.05,0,0,0.05,218.54999999999995,0)" xlink:href="#R"/><use transform="matrix(0.05,0,0,0.05,227.54999999999995,0)" xlink:href="#S"/><use transform="matrix(0.05,0,0,0.05,237.54999999999995,0)" xlink:href="#G"/></g><g id="j"><use transform="matrix(0.05,0,0,0.05,0,0)" xlink:href="#E"/><use transform="matrix(0.05,0,0,0.05,10,0)" xlink:href="#S"/><use transform="matrix(0.05,0,0,0.05,20,0)" xlink:href="#G"/><use transform="matrix(0.05,0,0,0.05,30,0)" xlink:href="#L"/><use transform="matrix(0.05,0,0,0.05,35.95,0)" xlink:href="#J"/><use transform="matrix(0.05,0,0,0.05,45.95,0)" xlink:href="#K"/><use transform="matrix(0.05,0,0,0.05,50.95,0)" xlink:href="#M"/><use transform="matrix(0.05,0,0,0.05,54.900000000000006,0)" xlink:href="#E"/><use transform="matrix(0.05,0,0,0.05,64.9,0)" xlink:href="#Z"/><use transform="matrix(0.05,0,0,0.05,74.9,0)" xlink:href="#W"/><use transform="matrix(0.05,0,0,0.05,84.9,0)" xlink:href="#aa"/><use transform="matrix(0.05,0,0,0.05,90.85000000000001,0)" xlink:href="#S"/><use transform="matrix(0.05,0,0,0.05,100.85000000000001,0)" xlink:href="#J"/><use transform="matrix(0.05,0,0,0.05,110.85000000000001,0)" xlink:href="#L"/><use transform="matrix(0.05,0,0,0.05,116.80000000000001,0)" xlink:href="#J"/><use transform="matrix(0.05,0,0,0.05,126.80000000000001,0)" xlink:href="#ab"/><use transform="matrix(0.05,0,0,0.05,141.75,0)" xlink:href="#ac"/><use transform="matrix(0.05,0,0,0.05,150.75,0)" xlink:href="#ad"/></g><g id="k"><use transform="matrix(0.05,0,0,0.05,0,0)" xlink:href="#E"/><use transform="matrix(0.05,0,0,0.05,10,0)" xlink:href="#S"/><use transform="matrix(0.05,0,0,0.05,20,0)" xlink:href="#G"/><use transform="matrix(0.05,0,0,0.05,30,0)" xlink:href="#L"/><use transform="matrix(0.05,0,0,0.05,35.95,0)" xlink:href="#J"/><use transform="matrix(0.05,0,0,0.05,45.95,0)" xlink:href="#K"/><use transform="matrix(0.05,0,0,0.05,50.95,0)" xlink:href="#M"/><use transform="matrix(0.05,0,0,0.05,54.900000000000006,0)" xlink:href="#E"/><use transform="matrix(0.05,0,0,0.05,64.9,0)" xlink:href="#Z"/><use transform="matrix(0.05,0,0,0.05,74.9,0)" xlink:href="#Y"/><use transform="matrix(0.05,0,0,0.05,84.9,0)" xlink:href="#aa"/><use transform="matrix(0.05,0,0,0.05,90.85000000000001,0)" xlink:href="#ad"/></g><path d="M185-189c-5-48-123-54-124 2 14 75 158 14 163 119 3 78-121 87-175 55-17-10-28-26-33-46l33-7c5 56 141 63 141-1 0-78-155-14-162-118-5-82 145-84 179-34 5 7 8 16 11 25" id="af"/><g id="l"><use transform="matrix(0.05,0,0,0.05,0,0)" xlink:href="#af"/><use transform="matrix(0.05,0,0,0.05,12,0)" xlink:href="#S"/><use transform="matrix(0.05,0,0,0.05,22,0)" xlink:href="#L"/><use transform="matrix(0.05,0,0,0.05,27.950000000000003,0)" xlink:href="#M"/><use transform="matrix(0.05,0,0,0.05,31.899999999999995,0)" xlink:href="#K"/><use transform="matrix(0.05,0,0,0.05,36.9,0)" xlink:href="#G"/></g><path d="M160-131c35 5 61 23 61 61C221 17 115-2 30 0v-248c76 3 177-17 177 60 0 33-19 50-47 57zm-97-11c50-1 110 9 110-42 0-47-63-36-110-37v79zm0 115c55-2 124 14 124-45 0-56-70-42-124-44v89" id="ag"/><path d="M96-169c-40 0-48 33-48 73s9 75 48 75c24 0 41-14 43-38l32 2c-6 37-31 61-74 61-59 0-76-41-82-99-10-93 101-131 147-64 4 7 5 14 7 22l-32 3c-4-21-16-35-41-35" id="ah"/><path d="M143 0L79-87 56-68V0H24v-261h32v163l83-92h37l-77 82L181 0h-38" id="ai"/><g id="m"><use transform="matrix(0.05,0,0,0.05,0,0)" xlink:href="#ag"/><use transform="matrix(0.05,0,0,0.05,12,0)" xlink:href="#J"/><use transform="matrix(0.05,0,0,0.05,22,0)" xlink:href="#ah"/><use transform="matrix(0.05,0,0,0.05,31,0)" xlink:href="#ai"/><use transform="matrix(0.05,0,0,0.05,40,0)" xlink:href="#ag"/><use transform="matrix(0.05,0,0,0.05,52,0)" xlink:href="#E"/><use transform="matrix(0.05,0,0,0.05,62,0)" xlink:href="#Z"/><use transform="matrix(0.05,0,0,0.05,72,0)" xlink:href="#G"/></g><path d="M30 0v-248h187v28H63v79h144v27H63v87h162V0H30" id="aj"/><path d="M177-190C167-65 218 103 67 71c-23-6-38-20-44-43l32-5c15 47 100 32 89-28v-30C133-14 115 1 83 1 29 1 15-40 15-95c0-56 16-97 71-98 29-1 48 16 59 35 1-10 0-23 2-32h30zM94-22c36 0 50-32 50-73 0-42-14-75-50-75-39 0-46 34-46 75s6 73 46 73" id="ak"/><g id="n"><use transform="matrix(0.05,0,0,0.05,0,0)" xlink:href="#aj"/><use transform="matrix(0.05,0,0,0.05,12,0)" xlink:href="#Z"/><use transform="matrix(0.05,0,0,0.05,22,0)" xlink:href="#ak"/><use transform="matrix(0.05,0,0,0.05,32,0)" xlink:href="#M"/><use transform="matrix(0.05,0,0,0.05,35.95,0)" xlink:href="#Z"/><use transform="matrix(0.05,0,0,0.05,45.95,0)" xlink:href="#G"/></g><path d="M266 0h-40l-56-210L115 0H75L2-248h35L96-30l15-64 43-154h32l59 218 59-218h35" id="al"/><g id="o"><use transform="matrix(0.05,0,0,0.05,0,0)" xlink:href="#al"/><use transform="matrix(0.05,0,0,0.05,16.599999999999998,0)" xlink:href="#E"/><use transform="matrix(0.05,0,0,0.05,26.599999999999994,0)" xlink:href="#L"/><use transform="matrix(0.05,0,0,0.05,32.55,0)" xlink:href="#H"/><use transform="matrix(0.05,0,0,0.05,36.5,0)" xlink:href="#F"/></g><path d="M106-169C34-169 62-67 57 0H25v-261h32l-1 103c12-21 28-36 61-36 89 0 53 116 60 194h-32v-121c2-32-8-49-39-48" id="am"/><g id="p"><use transform="matrix(0.05,0,0,0.05,0,0)" xlink:href="#af"/><use transform="matrix(0.05,0,0,0.05,12,0)" xlink:href="#S"/><use transform="matrix(0.05,0,0,0.05,22,0)" xlink:href="#L"/><use transform="matrix(0.05,0,0,0.05,27.950000000000003,0)" xlink:href="#M"/><use transform="matrix(0.05,0,0,0.05,31.899999999999995,0)" xlink:href="#K"/><use transform="matrix(0.05,0,0,0.05,36.9,0)" xlink:href="#G"/><use transform="matrix(0.05,0,0,0.05,46.9,0)" xlink:href="#af"/><use transform="matrix(0.05,0,0,0.05,58.900000000000006,0)" xlink:href="#am"/><use transform="matrix(0.05,0,0,0.05,68.9,0)" xlink:href="#G"/><use transform="matrix(0.05,0,0,0.05,78.9,0)" xlink:href="#G"/><use transform="matrix(0.05,0,0,0.05,88.9,0)" xlink:href="#K"/></g><g id="q"><use transform="matrix(0.05,0,0,0.05,0,0)" xlink:href="#aj"/><use transform="matrix(0.05,0,0,0.05,12,0)" xlink:href="#F"/><use transform="matrix(0.05,0,0,0.05,22,0)" xlink:href="#M"/><use transform="matrix(0.05,0,0,0.05,25.950000000000003,0)" xlink:href="#K"/><use transform="matrix(0.05,0,0,0.05,30.950000000000003,0)" xlink:href="#E"/><use transform="matrix(0.05,0,0,0.05,40.95,0)" xlink:href="#L"/></g><path d="M30-248c118-7 216 8 213 122C240-48 200 0 122 0H30v-248zM63-27c89 8 146-16 146-99s-60-101-146-95v194" id="an"/><g id="r"><use transform="matrix(0.05,0,0,0.05,0,0)" xlink:href="#an"/><use transform="matrix(0.05,0,0,0.05,12.950000000000001,0)" xlink:href="#M"/><use transform="matrix(0.05,0,0,0.05,16.900000000000002,0)" xlink:href="#ac"/><use transform="matrix(0.05,0,0,0.05,25.900000000000002,0)" xlink:href="#S"/><use transform="matrix(0.05,0,0,0.05,35.900000000000006,0)" xlink:href="#H"/><use transform="matrix(0.05,0,0,0.05,39.85000000000001,0)" xlink:href="#J"/><use transform="matrix(0.05,0,0,0.05,49.85000000000001,0)" xlink:href="#R"/></g><path d="M33 0v-248h34V0H33" id="ao"/><g id="s"><use transform="matrix(0.05,0,0,0.05,0,0)" xlink:href="#ao"/><use transform="matrix(0.05,0,0,0.05,5,0)" xlink:href="#Z"/><use transform="matrix(0.05,0,0,0.05,15,0)" xlink:href="#S"/><use transform="matrix(0.05,0,0,0.05,25,0)" xlink:href="#O"/><use transform="matrix(0.05,0,0,0.05,35,0)" xlink:href="#K"/></g><path d="M30-248c87 1 191-15 191 75 0 78-77 80-158 76V0H30v-248zm33 125c57 0 124 11 124-50 0-59-68-47-124-48v98" id="ap"/><g id="t"><use transform="matrix(0.05,0,0,0.05,0,0)" xlink:href="#an"/><use transform="matrix(0.05,0,0,0.05,12.950000000000001,0)" xlink:href="#G"/><use transform="matrix(0.05,0,0,0.05,22.950000000000003,0)" xlink:href="#N"/><use transform="matrix(0.05,0,0,0.05,32.95,0)" xlink:href="#O"/><use transform="matrix(0.05,0,0,0.05,42.95,0)" xlink:href="#ak"/><use transform="matrix(0.05,0,0,0.05,52.95,0)" xlink:href="#ap"/><use transform="matrix(0.05,0,0,0.05,64.95,0)" xlink:href="#J"/><use transform="matrix(0.05,0,0,0.05,74.95,0)" xlink:href="#Z"/><use transform="matrix(0.05,0,0,0.05,84.95,0)" xlink:href="#G"/><use transform="matrix(0.05,0,0,0.05,94.95,0)" xlink:href="#H"/></g><path d="M212-179c-10-28-35-45-73-45-59 0-87 40-87 99 0 60 29 101 89 101 43 0 62-24 78-52l27 14C228-24 195 4 139 4 59 4 22-46 18-125c-6-104 99-153 187-111 19 9 31 26 39 46" id="aq"/><g id="u"><use transform="matrix(0.05,0,0,0.05,0,0)" xlink:href="#aq"/><use transform="matrix(0.05,0,0,0.05,12.950000000000001,0)" xlink:href="#J"/><use transform="matrix(0.05,0,0,0.05,22.950000000000003,0)" xlink:href="#ab"/><use transform="matrix(0.05,0,0,0.05,37.900000000000006,0)" xlink:href="#G"/><use transform="matrix(0.05,0,0,0.05,47.900000000000006,0)" xlink:href="#L"/><use transform="matrix(0.05,0,0,0.05,53.85,0)" xlink:href="#J"/></g><g id="v"><use transform="matrix(0.05,0,0,0.05,0,0)" xlink:href="#D"/><use transform="matrix(0.05,0,0,0.05,14.950000000000001,0)" xlink:href="#G"/><use transform="matrix(0.05,0,0,0.05,24.950000000000003,0)" xlink:href="#ac"/><use transform="matrix(0.05,0,0,0.05,33.95,0)" xlink:href="#ac"/><use transform="matrix(0.05,0,0,0.05,42.95,0)" xlink:href="#J"/><use transform="matrix(0.05,0,0,0.05,52.95,0)" xlink:href="#ak"/><use transform="matrix(0.05,0,0,0.05,62.95,0)" xlink:href="#G"/></g><g id="w"><use transform="matrix(0.05,0,0,0.05,0,0)" xlink:href="#aq"/><use transform="matrix(0.05,0,0,0.05,12.950000000000001,0)" xlink:href="#H"/><use transform="matrix(0.05,0,0,0.05,16.900000000000002,0)" xlink:href="#E"/><use transform="matrix(0.05,0,0,0.05,26.900000000000002,0)" xlink:href="#ah"/><use transform="matrix(0.05,0,0,0.05,35.900000000000006,0)" xlink:href="#ai"/></g><g id="x"><use transform="matrix(0.05,0,0,0.05,0,0)" xlink:href="#aj"/><use transform="matrix(0.05,0,0,0.05,12,0)" xlink:href="#H"/><use transform="matrix(0.05,0,0,0.05,15.949999999999998,0)" xlink:href="#G"/><use transform="matrix(0.05,0,0,0.05,25.950000000000003,0)" xlink:href="#ab"/><use transform="matrix(0.05,0,0,0.05,40.9,0)" xlink:href="#G"/><use transform="matrix(0.05,0,0,0.05,50.9,0)" xlink:href="#Z"/><use transform="matrix(0.05,0,0,0.05,60.900000000000006,0)" xlink:href="#K"/></g><g id="y"><use transform="matrix(0.2222222222222222,0,0,0.2222222222222222,0,0)" xlink:href="#an"/><use transform="matrix(0.2222222222222222,0,0,0.2222222222222222,57.55555555555555,0)" xlink:href="#M"/><use transform="matrix(0.2222222222222222,0,0,0.2222222222222222,75.1111111111111,0)" xlink:href="#J"/><use transform="matrix(0.2222222222222222,0,0,0.2222222222222222,119.55555555555554,0)" xlink:href="#ak"/><use transform="matrix(0.2222222222222222,0,0,0.2222222222222222,164,0)" xlink:href="#L"/><use transform="matrix(0.2222222222222222,0,0,0.2222222222222222,190.44444444444446,0)" xlink:href="#J"/><use transform="matrix(0.2222222222222222,0,0,0.2222222222222222,234.8888888888889,0)" xlink:href="#ab"/><use transform="matrix(0.2222222222222222,0,0,0.2222222222222222,301.33333333333337,0)" xlink:href="#J"/></g><path d="M232-93c-1 65-40 97-104 97C67 4 28-28 28-90v-158h33c8 89-33 224 67 224 102 0 64-133 71-224h33v155" id="ar"/><path d="M30 0v-248h33v221h125V0H30" id="as"/><g id="z"><use transform="matrix(0.2222222222222222,0,0,0.2222222222222222,0,0)" xlink:href="#ar"/><use transform="matrix(0.2222222222222222,0,0,0.2222222222222222,57.55555555555555,0)" xlink:href="#D"/><use transform="matrix(0.2222222222222222,0,0,0.2222222222222222,124,0)" xlink:href="#as"/></g><g id="A"><use transform="matrix(0.2222222222222222,0,0,0.2222222222222222,0,0)" xlink:href="#F"/><use transform="matrix(0.2222222222222222,0,0,0.2222222222222222,44.44444444444444,0)" xlink:href="#G"/></g><g id="B"><use transform="matrix(0.2222222222222222,0,0,0.2222222222222222,0,0)" xlink:href="#H"/><use transform="matrix(0.2222222222222222,0,0,0.2222222222222222,17.555555555555554,0)" xlink:href="#E"/><use transform="matrix(0.2222222222222222,0,0,0.2222222222222222,62,0)" xlink:href="#ac"/></g><g id="C"><use transform="matrix(0.2222222222222222,0,0,0.2222222222222222,0,0)" xlink:href="#ab"/><use transform="matrix(0.2222222222222222,0,0,0.2222222222222222,66.44444444444444,0)" xlink:href="#E"/><use transform="matrix(0.2222222222222222,0,0,0.2222222222222222,110.88888888888889,0)" xlink:href="#F"/><use transform="matrix(0.2222222222222222,0,0,0.2222222222222222,155.33333333333331,0)" xlink:href="#G"/><use transform="matrix(0.2222222222222222,0,0,0.2222222222222222,199.77777777777777,0)" xlink:href="#H"/><use transform="matrix(0.2222222222222222,0,0,0.2222222222222222,217.33333333333331,0)" xlink:href="#E"/><use transform="matrix(0.2222222222222222,0,0,0.2222222222222222,261.77777777777777,0)" xlink:href="#ac"/></g></defs></g></svg>