<svg xmlns="http://www.w3.org/2000/svg" xmlns:xlink="http://www.w3.org/1999/xlink" xmlns:lucid="lucid" width="2720" height="2068.8"><g transform="translate(1500 860)" lucid:page-tab-id="0_0"><path d="M-1806.4-1259.2h3676.8v2582.4h-3676.8z" fill="#fff"/><path d="M-1140 65c0-2.76 2.24-5 5-5h350c2.76 0 5 2.24 5 5v230c0 2.76-2.24 5-5 5h-350c-2.76 0-5-2.24-5-5z" stroke="#000" stroke-width="2" fill="#b391b5"/><path d="M-1140 98h360m-360 64h360" stroke="#000" stroke-width="2" fill="none"/><use xlink:href="#a" transform="matrix(1,0,0,1,-1132,60) translate(148.55 22.6)"/><use xlink:href="#b" transform="matrix(1,0,0,1,-1128,169.87567567567567) translate(0 43.5)"/><use xlink:href="#c" transform="matrix(1,0,0,1,-1128,169.87567567567567) translate(15.5 43.5)"/><use xlink:href="#d" transform="matrix(1,0,0,1,-1128,169.87567567567567) translate(0 65.10000000000001)"/><use xlink:href="#e" transform="matrix(1,0,0,1,-1128,169.87567567567567) translate(10.95 65.10000000000001)"/><use xlink:href="#d" transform="matrix(1,0,0,1,-1128,169.87567567567567) translate(0 86.70000000000002)"/><use xlink:href="#f" transform="matrix(1,0,0,1,-1128,169.87567567567567) translate(10.95 86.70000000000002)"/><path d="M-660 546.6c0-2.76 2.24-5 5-5h350c2.76 0 5 2.24 5 5v230c0 2.76-2.24 5-5 5h-350c-2.76 0-5-2.24-5-5z" stroke="#000" stroke-width="2" fill="#fcc438"/><path d="M-660 579h360m-360 64h360" stroke="#000" stroke-width="2" fill="none"/><use xlink:href="#g" transform="matrix(1,0,0,1,-652,541.5999999999999) translate(132.575 22.6)"/><use xlink:href="#b" transform="matrix(1,0,0,1,-648,651.4756756756756) translate(0 43.5)"/><use xlink:href="#c" transform="matrix(1,0,0,1,-648,651.4756756756756) translate(15.5 43.5)"/><use xlink:href="#d" transform="matrix(1,0,0,1,-648,651.4756756756756) translate(0 65.10000000000001)"/><use xlink:href="#e" transform="matrix(1,0,0,1,-648,651.4756756756756) translate(10.95 65.10000000000001)"/><use xlink:href="#d" transform="matrix(1,0,0,1,-648,651.4756756756756) translate(0 86.70000000000002)"/><use xlink:href="#f" transform="matrix(1,0,0,1,-648,651.4756756756756) translate(10.95 86.70000000000002)"/><path d="M-660 65c0-2.76 2.24-5 5-5h350c2.76 0 5 2.24 5 5v230c0 2.76-2.24 5-5 5h-350c-2.76 0-5-2.24-5-5z" stroke="#000" stroke-width="2" fill="#ef8d22"/><path d="M-660 98h360m-360 64h360" stroke="#000" stroke-width="2" fill="none"/><use xlink:href="#h" transform="matrix(1,0,0,1,-652,60) translate(120.1 22.6)"/><use xlink:href="#b" transform="matrix(1,0,0,1,-648,169.87567567567567) translate(0 43.5)"/><use xlink:href="#c" transform="matrix(1,0,0,1,-648,169.87567567567567) translate(15.5 43.5)"/><use xlink:href="#d" transform="matrix(1,0,0,1,-648,169.87567567567567) translate(0 65.10000000000001)"/><use xlink:href="#e" transform="matrix(1,0,0,1,-648,169.87567567567567) translate(10.95 65.10000000000001)"/><use xlink:href="#d" transform="matrix(1,0,0,1,-648,169.87567567567567) translate(0 86.70000000000002)"/><use xlink:href="#f" transform="matrix(1,0,0,1,-648,169.87567567567567) translate(10.95 86.70000000000002)"/><path d="M-660-435c0-2.76 2.24-5 5-5h350c2.76 0 5 2.24 5 5v230c0 2.76-2.24 5-5 5h-350c-2.76 0-5-2.24-5-5z" stroke="#000" stroke-width="2" fill="#7ab648"/><path d="M-660-402h360m-360 64h360" stroke="#000" stroke-width="2" fill="none"/><use xlink:href="#i" transform="matrix(1,0,0,1,-652,-440) translate(157.9 22.6)"/><use xlink:href="#b" transform="matrix(1,0,0,1,-648,-330.12432432432433) translate(0 43.5)"/><use xlink:href="#c" transform="matrix(1,0,0,1,-648,-330.12432432432433) translate(15.5 43.5)"/><use xlink:href="#d" transform="matrix(1,0,0,1,-648,-330.12432432432433) translate(0 65.10000000000001)"/><use xlink:href="#e" transform="matrix(1,0,0,1,-648,-330.12432432432433) translate(10.95 65.10000000000001)"/><use xlink:href="#d" transform="matrix(1,0,0,1,-648,-330.12432432432433) translate(0 86.70000000000002)"/><use xlink:href="#f" transform="matrix(1,0,0,1,-648,-330.12432432432433) translate(10.95 86.70000000000002)"/><path d="M-190.67 953.8c0-2.76 2.24-5 5-5h350c2.76 0 5 2.24 5 5v230c0 2.76-2.24 5-5 5h-350c-2.76 0-5-2.24-5-5z" stroke="#000" stroke-width="2" fill="#c92d39"/><path d="M-190.67 986h360m-360 65h360" stroke="#000" stroke-width="2" fill="none"/><use xlink:href="#j" transform="matrix(1,0,0,1,-182.66666666666652,948.8000000000052) translate(152.55 22.6)"/><use xlink:href="#b" transform="matrix(1,0,0,1,-178.66666666666652,1058.6756756756808) translate(0 43.5)"/><use xlink:href="#c" transform="matrix(1,0,0,1,-178.66666666666652,1058.6756756756808) translate(15.5 43.5)"/><use xlink:href="#d" transform="matrix(1,0,0,1,-178.66666666666652,1058.6756756756808) translate(0 65.10000000000001)"/><use xlink:href="#e" transform="matrix(1,0,0,1,-178.66666666666652,1058.6756756756808) translate(10.95 65.10000000000001)"/><use xlink:href="#d" transform="matrix(1,0,0,1,-178.66666666666652,1058.6756756756808) translate(0 86.70000000000002)"/><use xlink:href="#f" transform="matrix(1,0,0,1,-178.66666666666652,1058.6756756756808) translate(10.95 86.70000000000002)"/><path d="M320 953.8c0-2.76 2.24-5 5-5h350c2.76 0 5 2.24 5 5v230c0 2.76-2.24 5-5 5H325c-2.76 0-5-2.24-5-5z" stroke="#000" stroke-width="2" fill="#ff8f80"/><path d="M320 986h360m-360 65h360" stroke="#000" stroke-width="2" fill="none"/><use xlink:href="#k" transform="matrix(1,0,0,1,328,948.8000000000052) translate(149.575 22.6)"/><use xlink:href="#b" transform="matrix(1,0,0,1,332,1058.6756756756808) translate(0 43.5)"/><use xlink:href="#c" transform="matrix(1,0,0,1,332,1058.6756756756808) translate(15.5 43.5)"/><use xlink:href="#d" transform="matrix(1,0,0,1,332,1058.6756756756808) translate(0 65.10000000000001)"/><use xlink:href="#e" transform="matrix(1,0,0,1,332,1058.6756756756808) translate(10.95 65.10000000000001)"/><use xlink:href="#d" transform="matrix(1,0,0,1,332,1058.6756756756808) translate(0 86.70000000000002)"/><use xlink:href="#f" transform="matrix(1,0,0,1,332,1058.6756756756808) translate(10.95 86.70000000000002)"/><path d="M840 953.8c0-2.76 2.24-5 5-5h350c2.76 0 5 2.24 5 5v230c0 2.76-2.24 5-5 5H845c-2.76 0-5-2.24-5-5z" stroke="#000" stroke-width="2" fill="#ffbbb1"/><path d="M840 986h360m-360 65h360" stroke="#000" stroke-width="2" fill="none"/><use xlink:href="#l" transform="matrix(1,0,0,1,848,948.8000000000052) translate(153.05 22.6)"/><use xlink:href="#b" transform="matrix(1,0,0,1,852,1058.6756756756808) translate(0 43.5)"/><use xlink:href="#c" transform="matrix(1,0,0,1,852,1058.6756756756808) translate(15.5 43.5)"/><use xlink:href="#d" transform="matrix(1,0,0,1,852,1058.6756756756808) translate(0 65.10000000000001)"/><use xlink:href="#e" transform="matrix(1,0,0,1,852,1058.6756756756808) translate(10.95 65.10000000000001)"/><use xlink:href="#d" transform="matrix(1,0,0,1,852,1058.6756756756808) translate(0 86.70000000000002)"/><use xlink:href="#f" transform="matrix(1,0,0,1,852,1058.6756756756808) translate(10.95 86.70000000000002)"/><path d="M-190.67 385c0-2.76 2.24-5 5-5h350c2.76 0 5 2.24 5 5v230c0 2.76-2.24 5-5 5h-350c-2.76 0-5-2.24-5-5z" stroke="#000" stroke-width="2" fill="#de5f85"/><path d="M-190.67 418h360m-360 64h360" stroke="#000" stroke-width="2" fill="none"/><use xlink:href="#m" transform="matrix(1,0,0,1,-182.66666666666652,380) translate(129.575 22.6)"/><use xlink:href="#b" transform="matrix(1,0,0,1,-178.66666666666652,489.87567567567567) translate(0 43.5)"/><use xlink:href="#c" transform="matrix(1,0,0,1,-178.66666666666652,489.87567567567567) translate(15.5 43.5)"/><use xlink:href="#d" transform="matrix(1,0,0,1,-178.66666666666652,489.87567567567567) translate(0 65.10000000000001)"/><use xlink:href="#e" transform="matrix(1,0,0,1,-178.66666666666652,489.87567567567567) translate(10.95 65.10000000000001)"/><use xlink:href="#d" transform="matrix(1,0,0,1,-178.66666666666652,489.87567567567567) translate(0 86.70000000000002)"/><use xlink:href="#f" transform="matrix(1,0,0,1,-178.66666666666652,489.87567567567567) translate(10.95 86.70000000000002)"/><path d="M320 625c0-2.76 2.24-5 5-5h350c2.76 0 5 2.24 5 5v230c0 2.76-2.24 5-5 5H325c-2.76 0-5-2.24-5-5z" stroke="#000" stroke-width="2" fill="#ff8f80"/><path d="M320 658h360m-360 64h360" stroke="#000" stroke-width="2" fill="none"/><use xlink:href="#n" transform="matrix(1,0,0,1,328,620) translate(149.4 22.6)"/><use xlink:href="#b" transform="matrix(1,0,0,1,332,729.8756756756757) translate(0 43.5)"/><use xlink:href="#c" transform="matrix(1,0,0,1,332,729.8756756756757) translate(15.5 43.5)"/><use xlink:href="#d" transform="matrix(1,0,0,1,332,729.8756756756757) translate(0 65.10000000000001)"/><use xlink:href="#e" transform="matrix(1,0,0,1,332,729.8756756756757) translate(10.95 65.10000000000001)"/><use xlink:href="#d" transform="matrix(1,0,0,1,332,729.8756756756757) translate(0 86.70000000000002)"/><use xlink:href="#f" transform="matrix(1,0,0,1,332,729.8756756756757) translate(10.95 86.70000000000002)"/><path d="M-190.67-335c0-2.76 2.24-5 5-5h350c2.76 0 5 2.24 5 5v230c0 2.76-2.24 5-5 5h-350c-2.76 0-5-2.24-5-5z" stroke="#000" stroke-width="2" fill="#a3d977"/><path d="M-190.67-302h360m-360 64h360" stroke="#000" stroke-width="2" fill="none"/><use xlink:href="#o" transform="matrix(1,0,0,1,-182.66666666666652,-340) translate(119.94999999999999 22.6)"/><use xlink:href="#b" transform="matrix(1,0,0,1,-178.66666666666652,-230.1243243243243) translate(0 43.5)"/><use xlink:href="#c" transform="matrix(1,0,0,1,-178.66666666666652,-230.1243243243243) translate(15.5 43.5)"/><use xlink:href="#d" transform="matrix(1,0,0,1,-178.66666666666652,-230.1243243243243) translate(0 65.10000000000001)"/><use xlink:href="#e" transform="matrix(1,0,0,1,-178.66666666666652,-230.1243243243243) translate(10.95 65.10000000000001)"/><use xlink:href="#d" transform="matrix(1,0,0,1,-178.66666666666652,-230.1243243243243) translate(0 86.70000000000002)"/><use xlink:href="#f" transform="matrix(1,0,0,1,-178.66666666666652,-230.1243243243243) translate(10.95 86.70000000000002)"/><path d="M320-335c0-2.76 2.24-5 5-5h350c2.76 0 5 2.24 5 5v230c0 2.76-2.24 5-5 5H325c-2.76 0-5-2.24-5-5z" stroke="#000" stroke-width="2" fill="#c7e8ac"/><path d="M320-302h360m-360 64h360" stroke="#000" stroke-width="2" fill="none"/><use xlink:href="#p" transform="matrix(1,0,0,1,328,-340) translate(152.05 22.6)"/><use xlink:href="#b" transform="matrix(1,0,0,1,332,-230.1243243243243) translate(0 43.5)"/><use xlink:href="#c" transform="matrix(1,0,0,1,332,-230.1243243243243) translate(15.5 43.5)"/><use xlink:href="#d" transform="matrix(1,0,0,1,332,-230.1243243243243) translate(0 65.10000000000001)"/><use xlink:href="#e" transform="matrix(1,0,0,1,332,-230.1243243243243) translate(10.95 65.10000000000001)"/><use xlink:href="#d" transform="matrix(1,0,0,1,332,-230.1243243243243) translate(0 86.70000000000002)"/><use xlink:href="#f" transform="matrix(1,0,0,1,332,-230.1243243243243) translate(10.95 86.70000000000002)"/><path d="M320-675c0-2.76 2.24-5 5-5h350c2.76 0 5 2.24 5 5v230c0 2.76-2.24 5-5 5H325c-2.76 0-5-2.24-5-5z" stroke="#000" stroke-width="2" fill="#ffdf71"/><path d="M320-642h360m-360 64h360" stroke="#000" stroke-width="2" fill="none"/><use xlink:href="#q" transform="matrix(1,0,0,1,328,-680) translate(144.025 22.6)"/><use xlink:href="#b" transform="matrix(1,0,0,1,332,-570.1243243243243) translate(0 43.5)"/><use xlink:href="#c" transform="matrix(1,0,0,1,332,-570.1243243243243) translate(15.5 43.5)"/><use xlink:href="#d" transform="matrix(1,0,0,1,332,-570.1243243243243) translate(0 65.10000000000001)"/><use xlink:href="#e" transform="matrix(1,0,0,1,332,-570.1243243243243) translate(10.95 65.10000000000001)"/><use xlink:href="#d" transform="matrix(1,0,0,1,332,-570.1243243243243) translate(0 86.70000000000002)"/><use xlink:href="#f" transform="matrix(1,0,0,1,332,-570.1243243243243) translate(10.95 86.70000000000002)"/><path d="M320 5c0-2.76 2.24-5 5-5h350c2.76 0 5 2.24 5 5v230c0 2.76-2.24 5-5 5H325c-2.76 0-5-2.24-5-5z" stroke="#000" stroke-width="2" fill="#c7e8ac"/><path d="M320 38h360m-360 64h360" stroke="#000" stroke-width="2" fill="none"/><use xlink:href="#r" transform="matrix(1,0,0,1,328,0) translate(114.05 22.6)"/><use xlink:href="#b" transform="matrix(1,0,0,1,332,109.87567567567567) translate(0 43.5)"/><use xlink:href="#c" transform="matrix(1,0,0,1,332,109.87567567567567) translate(15.5 43.5)"/><use xlink:href="#d" transform="matrix(1,0,0,1,332,109.87567567567567) translate(0 65.10000000000001)"/><use xlink:href="#e" transform="matrix(1,0,0,1,332,109.87567567567567) translate(10.95 65.10000000000001)"/><use xlink:href="#d" transform="matrix(1,0,0,1,332,109.87567567567567) translate(0 86.70000000000002)"/><use xlink:href="#f" transform="matrix(1,0,0,1,332,109.87567567567567) translate(10.95 86.70000000000002)"/><path d="M319-560h-69.33c-2.76 0-5 2.24-5 5v330c0 2.76-2.24 5-5 5H194.3M319-560h3" stroke="#000" stroke-width="2" fill="none"/><path d="M172.3-220l21.52-12.73v25.46z" stroke="#000" stroke-width="2" fill="#fff"/><path d="M319-220H194.3M319-220h3" stroke="#000" stroke-width="2" fill="none"/><path d="M172.3-220l21.52-12.73v25.46z" stroke="#000" stroke-width="2" fill="#fff"/><path d="M319 120h-69.33c-2.76 0-5-2.24-5-5v-330c0-2.76-2.24-5-5-5H194.3M319 120h3" stroke="#000" stroke-width="2" fill="none"/><path d="M172.3-220l21.52-12.73v25.46z" stroke="#000" stroke-width="2" fill="#fff"/><path d="M-191.67-220h-48.66c-2.76 0-5-2.24-5-5v-90c0-2.76-2.24-5-5-5h-24.7M-191.67-220h3" stroke="#000" stroke-width="2" fill="none"/><path d="M-297.04-320l21.52-12.73v25.46z" stroke="#000" stroke-width="2" fill="#fff"/><path d="M-661-320h-54c-2.76 0-5 2.24-5 5v490c0 2.76-2.24 5-5 5h-30.04M-661-320h3" stroke="#000" stroke-width="2" fill="none"/><path d="M-777.04 180l21.52-12.73v25.46z" stroke="#000" stroke-width="2" fill="#fff"/><path d="M-661 180h-94.04M-661 180h3" stroke="#000" stroke-width="2" fill="none"/><path d="M-777.04 180l21.52-12.73v25.46z" stroke="#000" stroke-width="2" fill="#fff"/><path d="M-661 661.6h-54c-2.76 0-5-2.24-5-5V185c0-2.76-2.24-5-5-5h-30.04M-661 661.6h3" stroke="#000" stroke-width="2" fill="none"/><path d="M-777.04 180l21.52-12.73v25.46z" stroke="#000" stroke-width="2" fill="#fff"/><path d="M-191.67 482.7h-48.66c-2.76 0-5 2.24-5 5v168.9c0 2.76-2.24 5-5 5h-24.7M-191.67 482.7h3" stroke="#000" stroke-width="2" fill="none"/><path d="M-297.04 661.6l21.52-12.73v25.46z" stroke="#000" stroke-width="2" fill="#fff"/><path d="M-191.67 1068.8h-48.66c-2.76 0-5-2.24-5-5V666.6c0-2.76-2.24-5-5-5h-24.7M-191.67 1068.8h3" stroke="#000" stroke-width="2" fill="none"/><path d="M-297.04 661.6l21.52-12.73v25.46z" stroke="#000" stroke-width="2" fill="#fff"/><path d="M319 740h-69.33c-2.76 0-5-2.24-5-5V505c0-2.76-2.24-5-5-5H194.3M319 740h3" stroke="#000" stroke-width="2" fill="none"/><path d="M172.3 500l21.52-12.73v25.46z" stroke="#000" stroke-width="2" fill="#fff"/><path d="M319 1068.8H194.3M319 1068.8h3" stroke="#000" stroke-width="2" fill="none"/><path d="M172.3 1068.8l21.52-12.73v25.46z" stroke="#000" stroke-width="2" fill="#fff"/><path d="M839 1068.8H704.96M839 1068.8h3" stroke="#000" stroke-width="2" fill="none"/><path d="M682.96 1068.8l21.52-12.73v25.46z" stroke="#000" stroke-width="2" fill="#fff"/><path d="M840 625c0-2.76 2.24-5 5-5h350c2.76 0 5 2.24 5 5v230c0 2.76-2.24 5-5 5H845c-2.76 0-5-2.24-5-5z" stroke="#000" stroke-width="2" fill="#ffbbb1"/><path d="M840 658h360m-360 64h360" stroke="#000" stroke-width="2" fill="none"/><g><use xlink:href="#s" transform="matrix(1,0,0,1,848,620) translate(125.475 22.6)"/></g><g><use xlink:href="#b" transform="matrix(1,0,0,1,852,729.8756756756757) translate(0 43.5)"/><use xlink:href="#c" transform="matrix(1,0,0,1,852,729.8756756756757) translate(15.5 43.5)"/><use xlink:href="#d" transform="matrix(1,0,0,1,852,729.8756756756757) translate(0 65.10000000000001)"/><use xlink:href="#e" transform="matrix(1,0,0,1,852,729.8756756756757) translate(10.95 65.10000000000001)"/><use xlink:href="#d" transform="matrix(1,0,0,1,852,729.8756756756757) translate(0 86.70000000000002)"/><use xlink:href="#f" transform="matrix(1,0,0,1,852,729.8756756756757) translate(10.95 86.70000000000002)"/></g><path d="M840 285c0-2.76 2.24-5 5-5h350c2.76 0 5 2.24 5 5v230c0 2.76-2.24 5-5 5H845c-2.76 0-5-2.24-5-5z" stroke="#000" stroke-width="2" fill="#ffbbb1"/><path d="M840 318h360m-360 64h360" stroke="#000" stroke-width="2" fill="none"/><g><use xlink:href="#t" transform="matrix(1,0,0,1,848,280) translate(146.525 22.6)"/></g><g><use xlink:href="#b" transform="matrix(1,0,0,1,852,389.87567567567567) translate(0 43.5)"/><use xlink:href="#c" transform="matrix(1,0,0,1,852,389.87567567567567) translate(15.5 43.5)"/><use xlink:href="#d" transform="matrix(1,0,0,1,852,389.87567567567567) translate(0 65.10000000000001)"/><use xlink:href="#e" transform="matrix(1,0,0,1,852,389.87567567567567) translate(10.95 65.10000000000001)"/><use xlink:href="#d" transform="matrix(1,0,0,1,852,389.87567567567567) translate(0 86.70000000000002)"/><use xlink:href="#f" transform="matrix(1,0,0,1,852,389.87567567567567) translate(10.95 86.70000000000002)"/></g><path d="M320 305c0-2.76 2.24-5 5-5h350c2.76 0 5 2.24 5 5v230c0 2.76-2.24 5-5 5H325c-2.76 0-5-2.24-5-5z" stroke="#000" stroke-width="2" fill="#ff8f80"/><path d="M320 338h360m-360 64h360" stroke="#000" stroke-width="2" fill="none"/><g><use xlink:href="#u" transform="matrix(1,0,0,1,327.9999999999807,300) translate(149.525 22.6)"/></g><g><use xlink:href="#b" transform="matrix(1,0,0,1,331.9999999999807,409.87567567567567) translate(0 43.5)"/><use xlink:href="#c" transform="matrix(1,0,0,1,331.9999999999807,409.87567567567567) translate(15.5 43.5)"/><use xlink:href="#d" transform="matrix(1,0,0,1,331.9999999999807,409.87567567567567) translate(0 65.10000000000001)"/><use xlink:href="#e" transform="matrix(1,0,0,1,331.9999999999807,409.87567567567567) translate(10.95 65.10000000000001)"/><use xlink:href="#d" transform="matrix(1,0,0,1,331.9999999999807,409.87567567567567) translate(0 86.70000000000002)"/><use xlink:href="#f" transform="matrix(1,0,0,1,331.9999999999807,409.87567567567567) translate(10.95 86.70000000000002)"/></g><path d="M319 420h-69.33c-2.76 0-5 2.24-5 5v70c0 2.76-2.24 5-5 5H194.3M319 420h3" stroke="#000" stroke-width="2" fill="none"/><path d="M172.3 500l21.52-12.73v25.46z" stroke="#000" stroke-width="2" fill="#fff"/><path d="M839 740H704.96M839 740h3" stroke="#000" stroke-width="2" fill="none"/><path d="M682.96 740l21.52-12.73v25.46z" stroke="#000" stroke-width="2" fill="#fff"/><path d="M839 400h-74c-2.76 0-5 2.24-5 5v330c0 2.76-2.24 5-5 5h-50.04M839 400h3" stroke="#000" stroke-width="2" fill="none"/><path d="M682.96 740l21.52-12.73v25.46z" stroke="#000" stroke-width="2" fill="#fff"/><path d="M840-675c0-2.76 2.24-5 5-5h350c2.76 0 5 2.24 5 5v230c0 2.76-2.24 5-5 5H845c-2.76 0-5-2.24-5-5z" stroke="#000" stroke-width="2" fill="#ffeca9"/><path d="M840-642h360m-360 64h360" stroke="#000" stroke-width="2" fill="none"/><g><use xlink:href="#v" transform="matrix(1,0,0,1,848,-680) translate(132.55 22.6)"/></g><g><use xlink:href="#b" transform="matrix(1,0,0,1,852,-570.1243243243243) translate(0 43.5)"/><use xlink:href="#c" transform="matrix(1,0,0,1,852,-570.1243243243243) translate(15.5 43.5)"/><use xlink:href="#d" transform="matrix(1,0,0,1,852,-570.1243243243243) translate(0 65.10000000000001)"/><use xlink:href="#e" transform="matrix(1,0,0,1,852,-570.1243243243243) translate(10.95 65.10000000000001)"/><use xlink:href="#d" transform="matrix(1,0,0,1,852,-570.1243243243243) translate(0 86.70000000000002)"/><use xlink:href="#f" transform="matrix(1,0,0,1,852,-570.1243243243243) translate(10.95 86.70000000000002)"/></g><path d="M840-335c0-2.76 2.24-5 5-5h350c2.76 0 5 2.24 5 5v230c0 2.76-2.24 5-5 5H845c-2.76 0-5-2.24-5-5z" stroke="#000" stroke-width="2" fill="#ffeca9"/><path d="M840-302h360m-360 64h360" stroke="#000" stroke-width="2" fill="none"/><g><use xlink:href="#w" transform="matrix(1,0,0,1,848,-340) translate(149.525 22.6)"/></g><g><use xlink:href="#b" transform="matrix(1,0,0,1,852,-230.1243243243243) translate(0 43.5)"/><use xlink:href="#c" transform="matrix(1,0,0,1,852,-230.1243243243243) translate(15.5 43.5)"/><use xlink:href="#d" transform="matrix(1,0,0,1,852,-230.1243243243243) translate(0 65.10000000000001)"/><use xlink:href="#e" transform="matrix(1,0,0,1,852,-230.1243243243243) translate(10.95 65.10000000000001)"/><use xlink:href="#d" transform="matrix(1,0,0,1,852,-230.1243243243243) translate(0 86.70000000000002)"/><use xlink:href="#f" transform="matrix(1,0,0,1,852,-230.1243243243243) translate(10.95 86.70000000000002)"/></g><path d="M839-560H704.96M839-560h3" stroke="#000" stroke-width="2" fill="none"/><path d="M682.96-560l21.52-12.73v25.46z" stroke="#000" stroke-width="2" fill="#fff"/><path d="M839-220h-74c-2.76 0-5-2.24-5-5v-330c0-2.76-2.24-5-5-5h-50.04M839-220h3" stroke="#000" stroke-width="2" fill="none"/><path d="M682.96-560l21.52-12.73v25.46z" stroke="#000" stroke-width="2" fill="#fff"/><path d="M-178.67-568v-.06-6.94c0-2.76 2.24-5 5-5h138c2.76 0 5 2.24 5 5v98c0 2.76-2.24 5-5 5h-6.94c-.04 0-.07-.03-.07-.06V-563c0-2.76-2.24-5-5-5h-131z" stroke="#000" stroke-width="2" fill="#a3d977"/><path d="M-190.67-563c0-2.76 2.24-5 5-5h138c2.76 0 5 2.24 5 5v98c0 2.76-2.24 5-5 5h-138c-2.76 0-5-2.24-5-5z" stroke="#000" stroke-width="2" fill="#a3d977"/><g><use xlink:href="#x" transform="matrix(1,0,0,1,-190.66666666666652,-568) translate(28.00499999999999 63.15)"/></g><path d="M-191.67-520h-48.66c-2.76 0-5 2.24-5 5v190c0 2.76-2.24 5-5 5h-24.7M-191.67-520h3" stroke="#000" stroke-width="2" fill="none"/><path d="M-297.04-320l21.52-12.73v25.46z" stroke="#000" stroke-width="2" fill="#fff"/><path d="M-1320-335c0-2.76 2.24-5 5-5h350c2.76 0 5 2.24 5 5v230c0 2.76-2.24 5-5 5h-350c-2.76 0-5-2.24-5-5z" stroke="#000" stroke-width="2" fill="#0c7cba"/><path d="M-1320-302h360m-360 64h360" stroke="#000" stroke-width="2" fill="none"/><g><use xlink:href="#y" transform="matrix(1,0,0,1,-1312,-340) translate(147.55 22.6)"/></g><g><use xlink:href="#b" transform="matrix(1,0,0,1,-1308,-230.1243243243243) translate(0 43.5)"/><use xlink:href="#c" transform="matrix(1,0,0,1,-1308,-230.1243243243243) translate(15.5 43.5)"/><use xlink:href="#d" transform="matrix(1,0,0,1,-1308,-230.1243243243243) translate(0 65.10000000000001)"/><use xlink:href="#e" transform="matrix(1,0,0,1,-1308,-230.1243243243243) translate(10.95 65.10000000000001)"/><use xlink:href="#d" transform="matrix(1,0,0,1,-1308,-230.1243243243243) translate(0 86.70000000000002)"/><use xlink:href="#f" transform="matrix(1,0,0,1,-1308,-230.1243243243243) translate(10.95 86.70000000000002)"/></g><path d="M-1480-715c0-2.76 2.24-5 5-5h350c2.76 0 5 2.24 5 5v230c0 2.76-2.24 5-5 5h-350c-2.76 0-5-2.24-5-5z" stroke="#000" stroke-width="2" fill="#999"/><path d="M-1480-682h360m-360 64h360" stroke="#000" stroke-width="2" fill="none"/><g><use xlink:href="#z" transform="matrix(1,0,0,1,-1472,-720) translate(132 22.6)"/></g><g><use xlink:href="#b" transform="matrix(1,0,0,1,-1468,-610.1243243243243) translate(0 43.5)"/><use xlink:href="#c" transform="matrix(1,0,0,1,-1468,-610.1243243243243) translate(15.5 43.5)"/><use xlink:href="#d" transform="matrix(1,0,0,1,-1468,-610.1243243243243) translate(0 65.10000000000001)"/><use xlink:href="#e" transform="matrix(1,0,0,1,-1468,-610.1243243243243) translate(10.95 65.10000000000001)"/><use xlink:href="#d" transform="matrix(1,0,0,1,-1468,-610.1243243243243) translate(0 86.70000000000002)"/><use xlink:href="#f" transform="matrix(1,0,0,1,-1468,-610.1243243243243) translate(10.95 86.70000000000002)"/></g><path d="M-960 59v-74c0-2.76-2.24-5-5-5h-159.98c-2.76 0-5-2.24-5-5v-50.04M-960 59v3" stroke="#000" stroke-width="2" fill="none"/><path d="M-1129.98-97.04l12.72 21.52h-25.45z" stroke="#000" stroke-width="2" fill="#fff"/><path d="M-1140-341v-64c0-2.76-2.24-5-5-5h-144.66c-2.76 0-5-2.24-5-5v-40.04M-1140-341v3" stroke="#000" stroke-width="2" fill="none"/><path d="M-1294.66-477.04l12.73 21.52h-25.46z" stroke="#000" stroke-width="2" fill="#fff"/><path d="M-1000-835c0-2.76 2.24-5 5-5H195c2.76 0 5 2.24 5 5v190c0 2.76-2.24 5-5 5H-995c-2.76 0-5-2.24-5-5z" stroke="#000" stroke-opacity="0" stroke-width="2" fill="#fff" fill-opacity="0"/><g><use xlink:href="#A" transform="matrix(1,0,0,1,-1000,-840) translate(59.72722222222229 115.83333333333334)"/><use xlink:href="#B" transform="matrix(1,0,0,1,-1000,-840) translate(366.39388888888897 115.83333333333334)"/><use xlink:href="#C" transform="matrix(1,0,0,1,-1000,-840) translate(522.8753703703705 115.83333333333334)"/><use xlink:href="#D" transform="matrix(1,0,0,1,-1000,-840) translate(615.467962962963 115.83333333333334)"/></g><defs><path d="M185-189c-5-48-123-54-124 2 14 75 158 14 163 119 3 78-121 87-175 55-17-10-28-26-33-46l33-7c5 56 141 63 141-1 0-78-155-14-162-118-5-82 145-84 179-34 5 7 8 16 11 25" id="E"/><path d="M115-194c55 1 70 41 70 98S169 2 115 4C84 4 66-9 55-30l1 105H24l-1-265h31l2 30c10-21 28-34 59-34zm-8 174c40 0 45-34 45-75s-6-73-45-74c-42 0-51 32-51 76 0 43 10 73 51 73" id="F"/><path d="M114-163C36-179 61-72 57 0H25l-1-190h30c1 12-1 29 2 39 6-27 23-49 58-41v29" id="G"/><path d="M24-231v-30h32v30H24zM24 0v-190h32V0H24" id="H"/><path d="M59-47c-2 24 18 29 38 22v24C64 9 27 4 27-40v-127H5v-23h24l9-43h21v43h35v23H59v120" id="I"/><path d="M100-194c63 0 86 42 84 106H49c0 40 14 67 53 68 26 1 43-12 49-29l28 8c-11 28-37 45-77 45C44 4 14-33 15-96c1-61 26-98 85-98zm52 81c6-60-76-77-97-28-3 7-6 17-6 28h103" id="J"/><g id="a"><use transform="matrix(0.05,0,0,0.05,0,0)" xlink:href="#E"/><use transform="matrix(0.05,0,0,0.05,12,0)" xlink:href="#F"/><use transform="matrix(0.05,0,0,0.05,22,0)" xlink:href="#G"/><use transform="matrix(0.05,0,0,0.05,27.950000000000003,0)" xlink:href="#H"/><use transform="matrix(0.05,0,0,0.05,31.899999999999995,0)" xlink:href="#I"/><use transform="matrix(0.05,0,0,0.05,36.9,0)" xlink:href="#J"/></g><path d="M118-107v75H92v-75H18v-26h74v-75h26v75h74v26h-74" id="K"/><use transform="matrix(0.05,0,0,0.05,0,0)" xlink:href="#K" id="b"/><path d="M100-194c62-1 85 37 85 99 1 63-27 99-86 99S16-35 15-95c0-66 28-99 85-99zM99-20c44 1 53-31 53-75 0-43-8-75-51-75s-53 32-53 75 10 74 51 75" id="L"/><path d="M141-36C126-15 110 5 73 4 37 3 15-17 15-53c-1-64 63-63 125-63 3-35-9-54-41-54-24 1-41 7-42 31l-33-3c5-37 33-52 76-52 45 0 72 20 72 64v82c-1 20 7 32 28 27v20c-31 9-61-2-59-35zM48-53c0 20 12 33 32 33 41-3 63-29 60-74-43 2-92-5-92 41" id="M"/><path d="M117-194c89-4 53 116 60 194h-32v-121c0-31-8-49-39-48C34-167 62-67 57 0H25l-1-190h30c1 10-1 24 2 32 11-22 29-35 61-36" id="N"/><path d="M27 0v-27h64v-190l-56 39v-29l58-41h29v221h61V0H27" id="O"/><path d="M87 75C49 33 22-17 22-94c0-76 28-126 65-167h31c-38 41-64 92-64 168S80 34 118 75H87" id="P"/><path d="M210-169c-67 3-38 105-44 169h-31v-121c0-29-5-50-35-48C34-165 62-65 56 0H25l-1-190h30c1 10-1 24 2 32 10-44 99-50 107 0 11-21 27-35 58-36 85-2 47 119 55 194h-31v-121c0-29-5-49-35-48" id="Q"/><path d="M135-143c-3-34-86-38-87 0 15 53 115 12 119 90S17 21 10-45l28-5c4 36 97 45 98 0-10-56-113-15-118-90-4-57 82-63 122-42 12 7 21 19 24 35" id="R"/><path d="M33-261c38 41 65 92 65 168S71 34 33 75H2C39 34 66-17 66-93S39-220 2-261h31" id="S"/><path d="M33-154v-36h34v36H33zM33 0v-36h34V0H33" id="T"/><path d="M84 4C-5 8 30-112 23-190h32v120c0 31 7 50 39 49 72-2 45-101 50-169h31l1 190h-30c-1-10 1-25-2-33-11 22-28 36-60 37" id="U"/><path d="M127-220V0H93v-220H8v-28h204v28h-85" id="V"/><path d="M179-190L93 31C79 59 56 82 12 73V49c39 6 53-20 64-50L1-190h34L92-34l54-156h33" id="W"/><g id="c"><use transform="matrix(0.05,0,0,0.05,0,0)" xlink:href="#L"/><use transform="matrix(0.05,0,0,0.05,10,0)" xlink:href="#F"/><use transform="matrix(0.05,0,0,0.05,20,0)" xlink:href="#J"/><use transform="matrix(0.05,0,0,0.05,30,0)" xlink:href="#G"/><use transform="matrix(0.05,0,0,0.05,35.95,0)" xlink:href="#M"/><use transform="matrix(0.05,0,0,0.05,45.95,0)" xlink:href="#I"/><use transform="matrix(0.05,0,0,0.05,50.95,0)" xlink:href="#H"/><use transform="matrix(0.05,0,0,0.05,54.900000000000006,0)" xlink:href="#L"/><use transform="matrix(0.05,0,0,0.05,64.9,0)" xlink:href="#N"/><use transform="matrix(0.05,0,0,0.05,74.9,0)" xlink:href="#O"/><use transform="matrix(0.05,0,0,0.05,84.9,0)" xlink:href="#P"/><use transform="matrix(0.05,0,0,0.05,90.85000000000001,0)" xlink:href="#F"/><use transform="matrix(0.05,0,0,0.05,100.85000000000001,0)" xlink:href="#M"/><use transform="matrix(0.05,0,0,0.05,110.85000000000001,0)" xlink:href="#G"/><use transform="matrix(0.05,0,0,0.05,116.80000000000001,0)" xlink:href="#M"/><use transform="matrix(0.05,0,0,0.05,126.80000000000001,0)" xlink:href="#Q"/><use transform="matrix(0.05,0,0,0.05,141.75,0)" xlink:href="#R"/><use transform="matrix(0.05,0,0,0.05,150.75,0)" xlink:href="#S"/><use transform="matrix(0.05,0,0,0.05,156.7,0)" xlink:href="#T"/><use transform="matrix(0.05,0,0,0.05,161.7,0)" xlink:href="#G"/><use transform="matrix(0.05,0,0,0.05,167.64999999999998,0)" xlink:href="#J"/><use transform="matrix(0.05,0,0,0.05,177.64999999999998,0)" xlink:href="#I"/><use transform="matrix(0.05,0,0,0.05,182.64999999999998,0)" xlink:href="#U"/><use transform="matrix(0.05,0,0,0.05,192.64999999999998,0)" xlink:href="#G"/><use transform="matrix(0.05,0,0,0.05,198.59999999999997,0)" xlink:href="#N"/><use transform="matrix(0.05,0,0,0.05,208.59999999999997,0)" xlink:href="#V"/><use transform="matrix(0.05,0,0,0.05,218.54999999999995,0)" xlink:href="#W"/><use transform="matrix(0.05,0,0,0.05,227.54999999999995,0)" xlink:href="#F"/><use transform="matrix(0.05,0,0,0.05,237.54999999999995,0)" xlink:href="#J"/></g><path d="M16-82v-28h88v28H16" id="X"/><use transform="matrix(0.05,0,0,0.05,0,0)" xlink:href="#X" id="d"/><path d="M101-251c82-7 93 87 43 132L82-64C71-53 59-42 53-27h129V0H18c2-99 128-94 128-182 0-28-16-43-45-43s-46 15-49 41l-32-3c6-41 34-60 81-64" id="Y"/><g id="e"><use transform="matrix(0.05,0,0,0.05,0,0)" xlink:href="#L"/><use transform="matrix(0.05,0,0,0.05,10,0)" xlink:href="#F"/><use transform="matrix(0.05,0,0,0.05,20,0)" xlink:href="#J"/><use transform="matrix(0.05,0,0,0.05,30,0)" xlink:href="#G"/><use transform="matrix(0.05,0,0,0.05,35.95,0)" xlink:href="#M"/><use transform="matrix(0.05,0,0,0.05,45.95,0)" xlink:href="#I"/><use transform="matrix(0.05,0,0,0.05,50.95,0)" xlink:href="#H"/><use transform="matrix(0.05,0,0,0.05,54.900000000000006,0)" xlink:href="#L"/><use transform="matrix(0.05,0,0,0.05,64.9,0)" xlink:href="#N"/><use transform="matrix(0.05,0,0,0.05,74.9,0)" xlink:href="#Y"/><use transform="matrix(0.05,0,0,0.05,84.9,0)" xlink:href="#P"/><use transform="matrix(0.05,0,0,0.05,90.85000000000001,0)" xlink:href="#F"/><use transform="matrix(0.05,0,0,0.05,100.85000000000001,0)" xlink:href="#M"/><use transform="matrix(0.05,0,0,0.05,110.85000000000001,0)" xlink:href="#G"/><use transform="matrix(0.05,0,0,0.05,116.80000000000001,0)" xlink:href="#M"/><use transform="matrix(0.05,0,0,0.05,126.80000000000001,0)" xlink:href="#Q"/><use transform="matrix(0.05,0,0,0.05,141.75,0)" xlink:href="#R"/><use transform="matrix(0.05,0,0,0.05,150.75,0)" xlink:href="#S"/></g><path d="M126-127c33 6 58 20 58 59 0 88-139 92-164 29-3-8-5-16-6-25l32-3c6 27 21 44 54 44 32 0 52-15 52-46 0-38-36-46-79-43v-28c39 1 72-4 72-42 0-27-17-43-46-43-28 0-47 15-49 41l-32-3c6-42 35-63 81-64 48-1 79 21 79 65 0 36-21 52-52 59" id="Z"/><g id="f"><use transform="matrix(0.05,0,0,0.05,0,0)" xlink:href="#L"/><use transform="matrix(0.05,0,0,0.05,10,0)" xlink:href="#F"/><use transform="matrix(0.05,0,0,0.05,20,0)" xlink:href="#J"/><use transform="matrix(0.05,0,0,0.05,30,0)" xlink:href="#G"/><use transform="matrix(0.05,0,0,0.05,35.95,0)" xlink:href="#M"/><use transform="matrix(0.05,0,0,0.05,45.95,0)" xlink:href="#I"/><use transform="matrix(0.05,0,0,0.05,50.95,0)" xlink:href="#H"/><use transform="matrix(0.05,0,0,0.05,54.900000000000006,0)" xlink:href="#L"/><use transform="matrix(0.05,0,0,0.05,64.9,0)" xlink:href="#N"/><use transform="matrix(0.05,0,0,0.05,74.9,0)" xlink:href="#Z"/><use transform="matrix(0.05,0,0,0.05,84.9,0)" xlink:href="#P"/><use transform="matrix(0.05,0,0,0.05,90.85000000000001,0)" xlink:href="#S"/></g><path d="M212-179c-10-28-35-45-73-45-59 0-87 40-87 99 0 60 29 101 89 101 43 0 62-24 78-52l27 14C228-24 195 4 139 4 59 4 22-46 18-125c-6-104 99-153 187-111 19 9 31 26 39 46" id="aa"/><path d="M106-169C34-169 62-67 57 0H25v-261h32l-1 103c12-21 28-36 61-36 89 0 53 116 60 194h-32v-121c2-32-8-49-39-48" id="ab"/><path d="M96-169c-40 0-48 33-48 73s9 75 48 75c24 0 41-14 43-38l32 2c-6 37-31 61-74 61-59 0-76-41-82-99-10-93 101-131 147-64 4 7 5 14 7 22l-32 3c-4-21-16-35-41-35" id="ac"/><g id="g"><use transform="matrix(0.05,0,0,0.05,0,0)" xlink:href="#aa"/><use transform="matrix(0.05,0,0,0.05,12.950000000000001,0)" xlink:href="#ab"/><use transform="matrix(0.05,0,0,0.05,22.950000000000003,0)" xlink:href="#M"/><use transform="matrix(0.05,0,0,0.05,32.95,0)" xlink:href="#G"/><use transform="matrix(0.05,0,0,0.05,38.900000000000006,0)" xlink:href="#M"/><use transform="matrix(0.05,0,0,0.05,48.900000000000006,0)" xlink:href="#ac"/><use transform="matrix(0.05,0,0,0.05,57.900000000000006,0)" xlink:href="#I"/><use transform="matrix(0.05,0,0,0.05,62.900000000000006,0)" xlink:href="#J"/><use transform="matrix(0.05,0,0,0.05,72.9,0)" xlink:href="#G"/></g><path d="M63-220v92h138v28H63V0H30v-248h175v28H63" id="ad"/><path d="M24 0v-261h32V0H24" id="ae"/><path d="M177-190C167-65 218 103 67 71c-23-6-38-20-44-43l32-5c15 47 100 32 89-28v-30C133-14 115 1 83 1 29 1 15-40 15-95c0-56 16-97 71-98 29-1 48 16 59 35 1-10 0-23 2-32h30zM94-22c36 0 50-32 50-73 0-42-14-75-50-75-39 0-46 34-46 75s6 73 46 73" id="af"/><path d="M30-248c87 1 191-15 191 75 0 78-77 80-158 76V0H30v-248zm33 125c57 0 124 11 124-50 0-59-68-47-124-48v98" id="ag"/><g id="h"><use transform="matrix(0.05,0,0,0.05,0,0)" xlink:href="#ad"/><use transform="matrix(0.05,0,0,0.05,10.950000000000001,0)" xlink:href="#ae"/><use transform="matrix(0.05,0,0,0.05,14.9,0)" xlink:href="#W"/><use transform="matrix(0.05,0,0,0.05,23.900000000000002,0)" xlink:href="#H"/><use transform="matrix(0.05,0,0,0.05,27.85,0)" xlink:href="#N"/><use transform="matrix(0.05,0,0,0.05,37.85,0)" xlink:href="#af"/><use transform="matrix(0.05,0,0,0.05,47.85,0)" xlink:href="#ag"/><use transform="matrix(0.05,0,0,0.05,59.85,0)" xlink:href="#J"/><use transform="matrix(0.05,0,0,0.05,69.85,0)" xlink:href="#N"/><use transform="matrix(0.05,0,0,0.05,79.85,0)" xlink:href="#N"/><use transform="matrix(0.05,0,0,0.05,89.85,0)" xlink:href="#H"/><use transform="matrix(0.05,0,0,0.05,93.8,0)" xlink:href="#J"/></g><g id="i"><use transform="matrix(0.05,0,0,0.05,0,0)" xlink:href="#V"/><use transform="matrix(0.05,0,0,0.05,10.3,0)" xlink:href="#H"/><use transform="matrix(0.05,0,0,0.05,14.25,0)" xlink:href="#ae"/><use transform="matrix(0.05,0,0,0.05,18.2,0)" xlink:href="#J"/></g><path d="M197 0v-115H63V0H30v-248h33v105h134v-105h34V0h-34" id="ah"/><g id="j"><use transform="matrix(0.05,0,0,0.05,0,0)" xlink:href="#ah"/><use transform="matrix(0.05,0,0,0.05,12.950000000000001,0)" xlink:href="#J"/><use transform="matrix(0.05,0,0,0.05,22.950000000000003,0)" xlink:href="#G"/><use transform="matrix(0.05,0,0,0.05,28.900000000000002,0)" xlink:href="#L"/></g><path d="M240 0l2-218c-23 76-54 145-80 218h-23L58-218 59 0H30v-248h44l77 211c21-75 51-140 76-211h43V0h-30" id="ai"/><g id="k"><use transform="matrix(0.05,0,0,0.05,0,0)" xlink:href="#ai"/><use transform="matrix(0.05,0,0,0.05,14.950000000000001,0)" xlink:href="#M"/><use transform="matrix(0.05,0,0,0.05,24.950000000000003,0)" xlink:href="#G"/><use transform="matrix(0.05,0,0,0.05,30.900000000000002,0)" xlink:href="#H"/><use transform="matrix(0.05,0,0,0.05,34.85,0)" xlink:href="#L"/></g><path d="M30 0v-248h33v221h125V0H30" id="aj"/><g id="l"><use transform="matrix(0.05,0,0,0.05,0,0)" xlink:href="#aj"/><use transform="matrix(0.05,0,0,0.05,10,0)" xlink:href="#U"/><use transform="matrix(0.05,0,0,0.05,20,0)" xlink:href="#H"/><use transform="matrix(0.05,0,0,0.05,23.95,0)" xlink:href="#af"/><use transform="matrix(0.05,0,0,0.05,33.95,0)" xlink:href="#H"/></g><g id="m"><use transform="matrix(0.05,0,0,0.05,0,0)" xlink:href="#ai"/><use transform="matrix(0.05,0,0,0.05,14.950000000000001,0)" xlink:href="#U"/><use transform="matrix(0.05,0,0,0.05,24.950000000000003,0)" xlink:href="#R"/><use transform="matrix(0.05,0,0,0.05,33.95,0)" xlink:href="#ab"/><use transform="matrix(0.05,0,0,0.05,43.95,0)" xlink:href="#G"/><use transform="matrix(0.05,0,0,0.05,49.900000000000006,0)" xlink:href="#L"/><use transform="matrix(0.05,0,0,0.05,59.900000000000006,0)" xlink:href="#L"/><use transform="matrix(0.05,0,0,0.05,69.9,0)" xlink:href="#Q"/></g><g id="n"><use transform="matrix(0.05,0,0,0.05,0,0)" xlink:href="#V"/><use transform="matrix(0.05,0,0,0.05,10.3,0)" xlink:href="#U"/><use transform="matrix(0.05,0,0,0.05,20.3,0)" xlink:href="#G"/><use transform="matrix(0.05,0,0,0.05,26.25,0)" xlink:href="#I"/><use transform="matrix(0.05,0,0,0.05,31.25,0)" xlink:href="#ae"/><use transform="matrix(0.05,0,0,0.05,35.2,0)" xlink:href="#J"/></g><path d="M205 0l-28-72H64L36 0H1l101-248h38L239 0h-34zm-38-99l-47-123c-12 45-31 82-46 123h93" id="ak"/><path d="M85-194c31 0 48 13 60 33l-1-100h32l1 261h-30c-2-10 0-23-3-31C134-8 116 4 85 4 32 4 16-35 15-94c0-66 23-100 70-100zm9 24c-40 0-46 34-46 75 0 40 6 74 45 74 42 0 51-32 51-76 0-42-9-74-50-73" id="al"/><g id="o"><use transform="matrix(0.05,0,0,0.05,0,0)" xlink:href="#ak"/><use transform="matrix(0.05,0,0,0.05,12,0)" xlink:href="#N"/><use transform="matrix(0.05,0,0,0.05,22,0)" xlink:href="#H"/><use transform="matrix(0.05,0,0,0.05,25.950000000000003,0)" xlink:href="#Q"/><use transform="matrix(0.05,0,0,0.05,40.9,0)" xlink:href="#M"/><use transform="matrix(0.05,0,0,0.05,50.9,0)" xlink:href="#I"/><use transform="matrix(0.05,0,0,0.05,55.900000000000006,0)" xlink:href="#J"/><use transform="matrix(0.05,0,0,0.05,65.9,0)" xlink:href="#al"/><use transform="matrix(0.05,0,0,0.05,75.9,0)" xlink:href="#V"/><use transform="matrix(0.05,0,0,0.05,86.2,0)" xlink:href="#H"/><use transform="matrix(0.05,0,0,0.05,90.15,0)" xlink:href="#ae"/><use transform="matrix(0.05,0,0,0.05,94.10000000000001,0)" xlink:href="#J"/></g><path d="M160-131c35 5 61 23 61 61C221 17 115-2 30 0v-248c76 3 177-17 177 60 0 33-19 50-47 57zm-97-11c50-1 110 9 110-42 0-47-63-36-110-37v79zm0 115c55-2 124 14 124-45 0-56-70-42-124-44v89" id="am"/><path d="M143 0L79-87 56-68V0H24v-261h32v163l83-92h37l-77 82L181 0h-38" id="an"/><g id="p"><use transform="matrix(0.05,0,0,0.05,0,0)" xlink:href="#am"/><use transform="matrix(0.05,0,0,0.05,12,0)" xlink:href="#G"/><use transform="matrix(0.05,0,0,0.05,17.95,0)" xlink:href="#H"/><use transform="matrix(0.05,0,0,0.05,21.9,0)" xlink:href="#ac"/><use transform="matrix(0.05,0,0,0.05,30.899999999999995,0)" xlink:href="#an"/></g><g id="q"><use transform="matrix(0.05,0,0,0.05,0,0)" xlink:href="#ag"/><use transform="matrix(0.05,0,0,0.05,12,0)" xlink:href="#J"/><use transform="matrix(0.05,0,0,0.05,22,0)" xlink:href="#N"/><use transform="matrix(0.05,0,0,0.05,32,0)" xlink:href="#N"/><use transform="matrix(0.05,0,0,0.05,42,0)" xlink:href="#H"/><use transform="matrix(0.05,0,0,0.05,45.95,0)" xlink:href="#J"/></g><path d="M140-251c81 0 123 46 123 126C263-53 228-8 163 1c7 30 30 48 69 40v23c-55 16-95-15-103-61C56-3 17-48 17-125c0-80 42-126 123-126zm0 227c63 0 89-41 89-101s-29-99-89-99c-61 0-89 39-89 99S79-25 140-24" id="ao"/><g id="r"><use transform="matrix(0.05,0,0,0.05,0,0)" xlink:href="#ao"/><use transform="matrix(0.05,0,0,0.05,14,0)" xlink:href="#U"/><use transform="matrix(0.05,0,0,0.05,24,0)" xlink:href="#J"/><use transform="matrix(0.05,0,0,0.05,34,0)" xlink:href="#R"/><use transform="matrix(0.05,0,0,0.05,43,0)" xlink:href="#I"/><use transform="matrix(0.05,0,0,0.05,48,0)" xlink:href="#H"/><use transform="matrix(0.05,0,0,0.05,51.95,0)" xlink:href="#L"/><use transform="matrix(0.05,0,0,0.05,61.95,0)" xlink:href="#N"/><use transform="matrix(0.05,0,0,0.05,71.95,0)" xlink:href="#am"/><use transform="matrix(0.05,0,0,0.05,83.95,0)" xlink:href="#ae"/><use transform="matrix(0.05,0,0,0.05,87.9,0)" xlink:href="#L"/><use transform="matrix(0.05,0,0,0.05,97.9,0)" xlink:href="#ac"/><use transform="matrix(0.05,0,0,0.05,106.9,0)" xlink:href="#an"/></g><g id="s"><use transform="matrix(0.05,0,0,0.05,0,0)" xlink:href="#ad"/><use transform="matrix(0.05,0,0,0.05,10.950000000000001,0)" xlink:href="#ae"/><use transform="matrix(0.05,0,0,0.05,14.9,0)" xlink:href="#W"/><use transform="matrix(0.05,0,0,0.05,23.900000000000002,0)" xlink:href="#H"/><use transform="matrix(0.05,0,0,0.05,27.85,0)" xlink:href="#N"/><use transform="matrix(0.05,0,0,0.05,37.85,0)" xlink:href="#af"/><use transform="matrix(0.05,0,0,0.05,47.85,0)" xlink:href="#V"/><use transform="matrix(0.05,0,0,0.05,58.150000000000006,0)" xlink:href="#U"/><use transform="matrix(0.05,0,0,0.05,68.15,0)" xlink:href="#G"/><use transform="matrix(0.05,0,0,0.05,74.10000000000001,0)" xlink:href="#I"/><use transform="matrix(0.05,0,0,0.05,79.10000000000001,0)" xlink:href="#ae"/><use transform="matrix(0.05,0,0,0.05,83.05000000000001,0)" xlink:href="#J"/></g><g id="t"><use transform="matrix(0.05,0,0,0.05,0,0)" xlink:href="#am"/><use transform="matrix(0.05,0,0,0.05,12,0)" xlink:href="#J"/><use transform="matrix(0.05,0,0,0.05,22,0)" xlink:href="#J"/><use transform="matrix(0.05,0,0,0.05,32,0)" xlink:href="#I"/><use transform="matrix(0.05,0,0,0.05,37,0)" xlink:href="#ae"/><use transform="matrix(0.05,0,0,0.05,40.95,0)" xlink:href="#J"/></g><g id="u"><use transform="matrix(0.05,0,0,0.05,0,0)" xlink:href="#E"/><use transform="matrix(0.05,0,0,0.05,12,0)" xlink:href="#F"/><use transform="matrix(0.05,0,0,0.05,22,0)" xlink:href="#H"/><use transform="matrix(0.05,0,0,0.05,25.950000000000003,0)" xlink:href="#an"/><use transform="matrix(0.05,0,0,0.05,34.95,0)" xlink:href="#J"/></g><path d="M232-93c-1 65-40 97-104 97C67 4 28-28 28-90v-158h33c8 89-33 224 67 224 102 0 64-133 71-224h33v155" id="ap"/><g id="v"><use transform="matrix(0.05,0,0,0.05,0,0)" xlink:href="#ag"/><use transform="matrix(0.05,0,0,0.05,12,0)" xlink:href="#J"/><use transform="matrix(0.05,0,0,0.05,22,0)" xlink:href="#N"/><use transform="matrix(0.05,0,0,0.05,32,0)" xlink:href="#N"/><use transform="matrix(0.05,0,0,0.05,42,0)" xlink:href="#H"/><use transform="matrix(0.05,0,0,0.05,45.95,0)" xlink:href="#J"/><use transform="matrix(0.05,0,0,0.05,55.95,0)" xlink:href="#ap"/><use transform="matrix(0.05,0,0,0.05,68.9,0)" xlink:href="#af"/></g><path d="M108 0H70L1-190h34L89-25l56-165h34" id="aq"/><g id="w"><use transform="matrix(0.05,0,0,0.05,0,0)" xlink:href="#aj"/><use transform="matrix(0.05,0,0,0.05,10,0)" xlink:href="#J"/><use transform="matrix(0.05,0,0,0.05,20,0)" xlink:href="#aq"/><use transform="matrix(0.05,0,0,0.05,29,0)" xlink:href="#J"/><use transform="matrix(0.05,0,0,0.05,39,0)" xlink:href="#G"/></g><g id="x"><use transform="matrix(0.05,0,0,0.05,0,0)" xlink:href="#V"/><use transform="matrix(0.05,0,0,0.05,8.950000000000001,0)" xlink:href="#J"/><use transform="matrix(0.05,0,0,0.05,18.950000000000003,0)" xlink:href="#G"/><use transform="matrix(0.05,0,0,0.05,24.900000000000002,0)" xlink:href="#G"/><use transform="matrix(0.05,0,0,0.05,30.85,0)" xlink:href="#M"/><use transform="matrix(0.05,0,0,0.05,40.85,0)" xlink:href="#H"/><use transform="matrix(0.05,0,0,0.05,44.800000000000004,0)" xlink:href="#N"/><use transform="matrix(0.05,0,0,0.05,54.800000000000004,0)" xlink:href="#V"/><use transform="matrix(0.05,0,0,0.05,65.10000000000001,0)" xlink:href="#H"/><use transform="matrix(0.05,0,0,0.05,69.05000000000001,0)" xlink:href="#ae"/><use transform="matrix(0.05,0,0,0.05,73.00000000000001,0)" xlink:href="#J"/><use transform="matrix(0.05,0,0,0.05,83.00000000000001,0)" xlink:href="#R"/></g><g id="y"><use transform="matrix(0.05,0,0,0.05,0,0)" xlink:href="#ai"/><use transform="matrix(0.05,0,0,0.05,14.950000000000001,0)" xlink:href="#L"/><use transform="matrix(0.05,0,0,0.05,24.950000000000003,0)" xlink:href="#al"/><use transform="matrix(0.05,0,0,0.05,34.95,0)" xlink:href="#J"/><use transform="matrix(0.05,0,0,0.05,44.95,0)" xlink:href="#ae"/></g><path d="M115-194c53 0 69 39 70 98 0 66-23 100-70 100C84 3 66-7 56-30L54 0H23l1-261h32v101c10-23 28-34 59-34zm-8 174c40 0 45-34 45-75 0-40-5-75-45-74-42 0-51 32-51 76 0 43 10 73 51 73" id="ar"/><g id="z"><use transform="matrix(0.05,0,0,0.05,0,0)" xlink:href="#am"/><use transform="matrix(0.05,0,0,0.05,12,0)" xlink:href="#M"/><use transform="matrix(0.05,0,0,0.05,22,0)" xlink:href="#ac"/><use transform="matrix(0.05,0,0,0.05,31,0)" xlink:href="#an"/><use transform="matrix(0.05,0,0,0.05,40,0)" xlink:href="#ar"/><use transform="matrix(0.05,0,0,0.05,50,0)" xlink:href="#L"/><use transform="matrix(0.05,0,0,0.05,60,0)" xlink:href="#N"/><use transform="matrix(0.05,0,0,0.05,70,0)" xlink:href="#J"/></g><path d="M30-248c118-7 216 8 213 122C240-48 200 0 122 0H30v-248zM63-27c89 8 146-16 146-99s-60-101-146-95v194" id="as"/><g id="A"><use transform="matrix(0.1851851851851852,0,0,0.1851851851851852,0,0)" xlink:href="#as"/><use transform="matrix(0.1851851851851852,0,0,0.1851851851851852,47.96296296296297,0)" xlink:href="#H"/><use transform="matrix(0.1851851851851852,0,0,0.1851851851851852,62.592592592592595,0)" xlink:href="#M"/><use transform="matrix(0.1851851851851852,0,0,0.1851851851851852,99.62962962962963,0)" xlink:href="#af"/><use transform="matrix(0.1851851851851852,0,0,0.1851851851851852,136.66666666666669,0)" xlink:href="#G"/><use transform="matrix(0.1851851851851852,0,0,0.1851851851851852,158.70370370370372,0)" xlink:href="#M"/><use transform="matrix(0.1851851851851852,0,0,0.1851851851851852,195.74074074074076,0)" xlink:href="#Q"/><use transform="matrix(0.1851851851851852,0,0,0.1851851851851852,251.11111111111114,0)" xlink:href="#M"/></g><g id="B"><use transform="matrix(0.1851851851851852,0,0,0.1851851851851852,0,0)" xlink:href="#ap"/><use transform="matrix(0.1851851851851852,0,0,0.1851851851851852,47.96296296296297,0)" xlink:href="#ai"/><use transform="matrix(0.1851851851851852,0,0,0.1851851851851852,103.33333333333334,0)" xlink:href="#aj"/></g><g id="C"><use transform="matrix(0.1851851851851852,0,0,0.1851851851851852,0,0)" xlink:href="#al"/><use transform="matrix(0.1851851851851852,0,0,0.1851851851851852,37.03703703703704,0)" xlink:href="#J"/></g><path d="M182-130c37 4 62 22 62 59C244 23 116-4 24 0v-248c84 5 203-23 205 63 0 31-19 50-47 55zM76-148c40-3 101 13 101-30 0-44-60-28-101-31v61zm0 110c48-3 116 14 116-37 0-48-69-32-116-35v72" id="at"/><path d="M133-34C117-15 103 5 69 4 32 3 11-16 11-54c-1-60 55-63 116-61 1-26-3-47-28-47-18 1-26 9-28 27l-52-2c7-38 36-58 82-57s74 22 75 68l1 82c-1 14 12 18 25 15v27c-30 8-71 5-69-32zm-48 3c29 0 43-24 42-57-32 0-66-3-65 30 0 17 8 27 23 27" id="au"/><path d="M190-63c-7 42-38 67-86 67-59 0-84-38-90-98-12-110 154-137 174-36l-49 2c-2-19-15-32-35-32-30 0-35 28-38 64-6 74 65 87 74 30" id="av"/><path d="M147 0L96-86 75-71V0H25v-261h50v150l67-79h53l-66 74L201 0h-54" id="aw"/><path d="M135-194c52 0 70 43 70 98 0 56-19 99-73 100-30 1-46-15-58-35L72 0H24l1-261h50v104c11-23 29-37 60-37zM114-30c31 0 40-27 40-66 0-37-7-63-39-63s-41 28-41 65c0 36 8 64 40 64" id="ax"/><path d="M110-194c64 0 96 36 96 99 0 64-35 99-97 99-61 0-95-36-95-99 0-62 34-99 96-99zm-1 164c35 0 45-28 45-65 0-40-10-65-43-65-34 0-45 26-45 65 0 36 10 65 43 65" id="ay"/><path d="M135-194c87-1 58 113 63 194h-50c-7-57 23-157-34-157-59 0-34 97-39 157H25l-1-190h47c2 12-1 28 3 38 12-26 28-41 61-42" id="az"/><path d="M185-48c-13 30-37 53-82 52C43 2 14-33 14-96s30-98 90-98c62 0 83 45 84 108H66c0 31 8 55 39 56 18 0 30-7 34-22zm-45-69c5-46-57-63-70-21-2 6-4 13-4 21h74" id="aA"/><path d="M24 0v-54h51V0H24" id="aB"/><path d="M169-182c-1-43-94-46-97-3 18 66 151 10 154 114 3 95-165 93-204 36-6-8-10-19-12-30l50-8c3 46 112 56 116 5-17-69-150-10-154-114-4-87 153-88 188-35 5 8 8 18 10 28" id="aC"/><path d="M135-194c53 0 70 44 70 98 0 56-19 98-73 100-31 1-45-17-59-34 3 33 2 69 2 105H25l-1-265h48c2 10 0 23 3 31 11-24 29-35 60-35zM114-30c33 0 39-31 40-66 0-38-9-64-40-64-56 0-55 130 0 130" id="aD"/><path d="M135-150c-39-12-60 13-60 57V0H25l-1-190h47c2 13-1 29 3 40 6-28 27-53 61-41v41" id="aE"/><path d="M25-224v-37h50v37H25zM25 0v-190h50V0H25" id="aF"/><path d="M115-3C79 11 28 4 28-45v-112H4v-33h27l15-45h31v45h36v33H77v99c-1 23 16 31 38 25v30" id="aG"/><g id="D"><use transform="matrix(0.1851851851851852,0,0,0.1851851851851852,0,0)" xlink:href="#at"/><use transform="matrix(0.1851851851851852,0,0,0.1851851851851852,47.96296296296297,0)" xlink:href="#au"/><use transform="matrix(0.1851851851851852,0,0,0.1851851851851852,85,0)" xlink:href="#av"/><use transform="matrix(0.1851851851851852,0,0,0.1851851851851852,122.03703703703705,0)" xlink:href="#aw"/><use transform="matrix(0.1851851851851852,0,0,0.1851851851851852,159.07407407407408,0)" xlink:href="#ax"/><use transform="matrix(0.1851851851851852,0,0,0.1851851851851852,199.62962962962962,0)" xlink:href="#ay"/><use transform="matrix(0.1851851851851852,0,0,0.1851851851851852,240.18518518518516,0)" xlink:href="#az"/><use transform="matrix(0.1851851851851852,0,0,0.1851851851851852,280.7407407407407,0)" xlink:href="#aA"/><use transform="matrix(0.1851851851851852,0,0,0.1851851851851852,317.7777777777777,0)" xlink:href="#aB"/><use transform="matrix(0.1851851851851852,0,0,0.1851851851851852,336.29629629629625,0)" xlink:href="#aC"/><use transform="matrix(0.1851851851851852,0,0,0.1851851851851852,380.7407407407407,0)" xlink:href="#aD"/><use transform="matrix(0.1851851851851852,0,0,0.1851851851851852,421.29629629629625,0)" xlink:href="#aE"/><use transform="matrix(0.1851851851851852,0,0,0.1851851851851852,447.2222222222222,0)" xlink:href="#aF"/><use transform="matrix(0.1851851851851852,0,0,0.1851851851851852,465.7407407407407,0)" xlink:href="#aG"/><use transform="matrix(0.1851851851851852,0,0,0.1851851851851852,487.7777777777777,0)" xlink:href="#aA"/></g></defs></g></svg>